<svg width="213" height="79" viewBox="0 0 213 79" fill="none" xmlns="http://www.w3.org/2000/svg">
<path d="M40.2916 76.2268C49.5352 76.2268 54.0183 71.5611 54.0183 66.1022C54.0183 54.1115 35.2076 58.2639 35.2076 52.2452C35.2076 50.1923 36.9176 48.5126 41.3546 48.5126C44.2201 48.5126 47.3167 49.3525 50.3209 51.0788L52.6318 45.34C49.6276 43.4271 45.468 42.4473 41.4008 42.4473C32.2034 42.4473 27.7664 47.0663 27.7664 52.6184C27.7664 64.7492 46.5772 60.5501 46.5772 66.6621C46.5772 68.6684 44.7747 70.1614 40.3378 70.1614C36.4554 70.1614 32.3883 68.7617 29.6614 66.7554L27.1194 72.4476C29.9849 74.6871 35.1613 76.2268 40.2916 76.2268Z" fill="#1D1D1D"/>
<path d="M166.142 43.0071H152.138V75.6669H159.625V66.6621H166.142C174.785 66.6621 180.193 62.1364 180.193 54.858C180.193 47.5329 174.785 43.0071 166.142 43.0071ZM165.726 60.5034H159.625V49.1658H165.726C170.302 49.1658 172.613 51.2654 172.613 54.858C172.613 58.4039 170.302 60.5034 165.726 60.5034Z" fill="#1D1D1D"/>
<path d="M194.63 69.6015V62.0431H209.651V56.1644H194.63V49.0725H211.638V43.0071H187.189V75.6669H212.239V69.6015H194.63Z" fill="#1D1D1D"/>
<path d="M77.6505 76.2268C83.2891 76.2268 87.9571 74.1739 91.0075 70.3947L86.2008 65.9156C84.0286 68.4817 81.3017 69.7881 78.0664 69.7881C72.0118 69.7881 67.7136 65.4957 67.7136 59.337C67.7136 53.1783 72.0118 48.8859 78.0664 48.8859C81.3017 48.8859 84.0286 50.1923 86.2008 52.7118L91.0075 48.2327C87.9571 44.5002 83.2891 42.4473 77.6967 42.4473C67.6211 42.4473 60.1338 49.4924 60.1338 59.337C60.1338 69.1816 67.6211 76.2268 77.6505 76.2268Z" fill="#51CA89"/>
<path d="M112.705 76.2268C122.873 76.2268 130.407 69.0883 130.407 59.337C130.407 49.5858 122.873 42.4473 112.705 42.4473C102.491 42.4473 95.0037 49.6324 95.0037 59.337C95.0037 69.0416 102.491 76.2268 112.705 76.2268ZM112.705 69.7881C106.928 69.7881 102.583 65.5424 102.583 59.337C102.583 53.1317 106.928 48.8859 112.705 48.8859C118.483 48.8859 122.827 53.1317 122.827 59.337C122.827 65.5424 118.483 69.7881 112.705 69.7881Z" fill="#51CA89"/>
<path d="M141.276 75.7002L143.785 73.534C145.931 71.6344 146.426 70.5013 146.426 69.1683C146.426 66.6021 144.115 64.8692 140.517 64.8692C137.348 64.8692 135.268 66.1022 134.278 67.8685L137.48 69.6015C138.008 68.735 138.932 68.2351 140.121 68.2351C141.441 68.2351 142.003 68.8017 142.003 69.5015C142.003 70.0347 141.738 70.6013 140.583 71.6011L135.103 76.3667V78.9995H146.888V75.7002H141.276Z" fill="#51CA89"/>
<path d="M0 32.4677H7.47963V0.547208H0V32.4677Z" fill="#1D1D1D"/>
<path d="M53.2272 32.4677L53.1349 0.547208H46.9942L35.0822 20.3835L22.9855 0.547208H16.7987V32.4677H23.8166V13.7258L33.2816 29.0933H36.652L46.1631 13.3154L46.2093 32.4677H53.2272Z" fill="#1D1D1D"/>
<path d="M76.5338 0.547208H62.5441V32.4677H70.0237V23.6668H76.5338C85.1677 23.6668 90.5696 19.2435 90.5696 12.1298C90.5696 4.97048 85.1677 0.547208 76.5338 0.547208ZM76.1182 17.6475H70.0237V6.5665H76.1182C80.6891 6.5665 82.9977 8.61854 82.9977 12.1298C82.9977 15.5954 80.6891 17.6475 76.1182 17.6475Z" fill="#1D1D1D"/>
<path d="M120.083 32.4677H127.932L113.48 0.547208H106.093L91.6876 32.4677H99.3519L102.215 25.6276H117.22L120.083 32.4677ZM104.615 20.0187L109.74 7.79772L114.865 20.0187H104.615Z" fill="#1D1D1D"/>
<path d="M147.95 33.0149C153.583 33.0149 158.246 31.0085 161.293 27.3148L156.491 22.9372C154.321 25.4452 151.597 26.722 148.365 26.722C142.317 26.722 138.023 22.5268 138.023 16.5075C138.023 10.4882 142.317 6.2929 148.365 6.2929C151.597 6.2929 154.321 7.56972 156.491 10.0322L161.293 5.65449C158.246 2.00643 153.583 0 147.996 0C137.931 0 130.451 6.88571 130.451 16.5075C130.451 26.1292 137.931 33.0149 147.95 33.0149Z" fill="#1D1D1D"/>
<path d="M174.372 32.4677H181.852V6.5665H192.194V0.547208H164.03V6.5665H174.372V32.4677Z" fill="#1D1D1D"/>
</svg>
