<svg width="40" height="40" viewBox="0 0 40 40" fill="none" xmlns="http://www.w3.org/2000/svg">
<path d="M10.9531 18.2482C10.9531 23.5029 15.2127 27.7625 20.4674 27.7625C25.7221 27.7625 29.9817 23.5029 29.9817 18.2482C29.9817 12.9935 25.7221 8.73389 20.4674 8.73389C15.2153 8.73965 10.9592 12.9961 10.9531 18.2482ZM20.4674 10.0461C24.9974 10.0461 28.6695 13.7182 28.6695 18.2482C28.6695 22.7782 24.9974 26.4503 20.4674 26.4503C15.9374 26.4503 12.2654 22.7782 12.2654 18.2482C12.2705 13.7204 15.9397 10.0512 20.4674 10.0461Z" fill="white"/>
<path d="M33.2165 29.3803L28.0769 31.8087C27.3673 30.4887 26.006 29.6487 24.508 29.6064L19.7633 29.476C19.012 29.4546 18.2749 29.2643 17.6069 28.9192L17.1241 28.669C14.6521 27.3805 11.7057 27.3837 9.2363 28.6774L9.26641 27.5836C9.27635 27.2213 8.9909 26.9195 8.62856 26.9096L3.42577 26.7664C3.06343 26.7564 2.76196 27.0419 2.75203 27.4042L2.43775 38.8215C2.42782 39.1839 2.71327 39.4857 3.07561 39.4956L8.2784 39.6388H8.29634C8.65195 39.6388 8.94284 39.3559 8.95245 39.0006L8.96751 38.4544L10.3191 37.7307C10.8497 37.4452 11.4699 37.3773 12.0495 37.5413L20.1208 39.8067C20.1349 39.8108 20.149 39.814 20.1634 39.8172C20.7468 39.9393 21.3414 40.0005 21.9373 40.0002C23.1996 40.0008 24.4471 39.7288 25.5943 39.2021C25.6225 39.1893 25.6498 39.1743 25.6757 39.1573L37.3785 31.5876C37.67 31.3989 37.7642 31.0161 37.5934 30.7136C36.7246 29.172 34.7976 28.5848 33.2165 29.3803ZM3.7676 38.2019L4.04568 28.0962L7.93656 28.2032L7.65848 38.3093L3.7676 38.2019ZM25.0033 38.0302C23.5779 38.6735 21.986 38.851 20.454 38.538L12.4044 36.2784C11.4984 36.0225 10.5287 36.1285 9.69987 36.5741L9.00916 36.9442L9.19401 30.2251C11.3828 28.7693 14.1898 28.6197 16.5208 29.8342L17.0036 30.0844C17.8475 30.5201 18.7782 30.7604 19.7274 30.788L24.4724 30.9183C25.8051 30.9568 26.937 31.9057 27.2074 33.2115L20.1397 33.0164C19.7774 33.0065 19.4759 33.2923 19.4657 33.6543C19.4557 34.0166 19.7415 34.3184 20.1035 34.3284L27.9032 34.543H27.9215C28.2768 34.5427 28.5674 34.2598 28.577 33.9048C28.585 33.6197 28.5638 33.3342 28.5135 33.0536L33.7852 30.5627C33.7903 30.5605 33.7955 30.5579 33.8006 30.5554C34.5483 30.177 35.4524 30.3036 36.0675 30.8729L25.0033 38.0302Z" fill="white"/>
<path d="M21.1238 6.88921V0.656115C21.1238 0.293778 20.83 0 20.4676 0C20.1053 0 19.8115 0.293778 19.8115 0.656115V6.88921C19.8115 7.25155 20.1053 7.54533 20.4676 7.54533C20.83 7.54533 21.1238 7.25155 21.1238 6.88921Z" fill="white"/>
<path d="M26.0447 6.8894V3.93688C26.0447 3.57454 25.7509 3.28076 25.3885 3.28076C25.0262 3.28076 24.7324 3.57454 24.7324 3.93688V6.8894C24.7324 7.25173 25.0262 7.54551 25.3885 7.54551C25.7509 7.54551 26.0447 7.25173 26.0447 6.8894Z" fill="white"/>
<path d="M16.2029 6.8894V3.93688C16.2029 3.57454 15.9091 3.28076 15.5467 3.28076C15.1844 3.28076 14.8906 3.57454 14.8906 3.93688V6.8894C14.8906 7.25173 15.1844 7.54551 15.5467 7.54551C15.9091 7.54551 16.2029 7.25173 16.2029 6.8894Z" fill="white"/>
<path fill-rule="evenodd" clip-rule="evenodd" d="M18.2387 13.461V13.9018C18.1394 13.9154 18.0465 13.961 17.9749 14.0327C17.8884 14.1191 17.8398 14.2364 17.8398 14.3587V18.3465V18.3465V22.3344C17.8398 22.4567 17.8884 22.574 17.9749 22.6604C18.0465 22.7321 18.1394 22.7777 18.2387 22.7913V23.232C18.2387 23.3543 18.2872 23.4716 18.3737 23.558C18.4601 23.6445 18.5774 23.693 18.6997 23.693C18.822 23.693 18.9392 23.6445 19.0257 23.558C19.1121 23.4716 19.1607 23.3543 19.1607 23.232V22.7955H19.6627V23.232C19.6627 23.3543 19.7113 23.4716 19.7978 23.558C19.8842 23.6445 20.0015 23.693 20.1237 23.693C20.246 23.693 20.3633 23.6445 20.4497 23.558C20.5362 23.4716 20.5848 23.3543 20.5848 23.232V22.7955H21.4151C21.7375 22.7955 22.0567 22.732 22.3546 22.6086C22.6525 22.4852 22.9231 22.3044 23.1511 22.0764C23.379 21.8485 23.5598 21.5778 23.6832 21.28C23.8066 20.9821 23.8701 20.6629 23.8701 20.3405C23.8701 20.0181 23.8066 19.6989 23.6832 19.401C23.5598 19.1032 23.379 18.8325 23.1511 18.6046C22.9549 18.4084 22.7272 18.2472 22.4778 18.1274C22.4912 18.1146 22.5045 18.1017 22.5176 18.0885C22.978 17.6281 23.2366 17.0037 23.2366 16.3526C23.2366 15.7015 22.978 15.0771 22.5176 14.6167C22.0572 14.1563 21.4328 13.8976 20.7817 13.8976H20.5848V13.461C20.5848 13.3388 20.5362 13.2215 20.4497 13.135C20.3633 13.0486 20.246 13 20.1237 13C20.0015 13 19.8842 13.0486 19.7978 13.135C19.7113 13.2215 19.6627 13.3388 19.6627 13.461V13.8976H19.1607V13.461C19.1607 13.3388 19.1121 13.2215 19.0257 13.135C18.9392 13.0486 18.822 13 18.6997 13C18.5774 13 18.4601 13.0486 18.3737 13.135C18.2872 13.2215 18.2387 13.3388 18.2387 13.461ZM20.1304 21.8734H21.4151C21.8217 21.8734 22.2116 21.7119 22.4991 21.4244C22.7865 21.137 22.948 20.747 22.948 20.3405C22.948 19.9339 22.7865 19.544 22.4991 19.2566C22.2116 18.9691 21.8217 18.8076 21.4151 18.8076H20.7854L20.7817 18.8076L18.7619 18.8076V21.8734H20.1171C20.1193 21.8734 20.1215 21.8734 20.1237 21.8734C20.126 21.8734 20.1282 21.8734 20.1304 21.8734ZM20.7855 17.8855C21.1907 17.8845 21.579 17.7231 21.8656 17.4365C22.1531 17.1491 22.3146 16.7592 22.3146 16.3526C22.3146 15.946 22.1531 15.5561 21.8656 15.2687C21.5781 14.9812 21.1882 14.8197 20.7817 14.8197H18.7619V17.8855H20.7855Z" fill="white"/>
<path d="M18.2387 13.9018L18.2589 14.0505L18.3887 14.0328V13.9018H18.2387ZM17.9749 14.0327L17.8688 13.9266H17.8688L17.9749 14.0327ZM17.9749 22.6604L17.8688 22.7665L17.8688 22.7665L17.9749 22.6604ZM18.2387 22.7913H18.3887V22.6603L18.2589 22.6426L18.2387 22.7913ZM18.3737 23.558L18.4798 23.4519H18.4798L18.3737 23.558ZM19.0257 23.558L18.9196 23.4519H18.9196L19.0257 23.558ZM19.1607 22.7955V22.6455H19.0107V22.7955H19.1607ZM19.6627 22.7955H19.8127V22.6455H19.6627V22.7955ZM19.7978 23.558L19.9038 23.4519H19.9038L19.7978 23.558ZM20.4497 23.558L20.3437 23.4519H20.3437L20.4497 23.558ZM20.5848 22.7955V22.6455H20.4348V22.7955H20.5848ZM23.1511 22.0764L23.045 21.9704H23.045L23.1511 22.0764ZM23.6832 21.28L23.8218 21.3374H23.8218L23.6832 21.28ZM23.6832 19.401L23.8218 19.3436L23.8218 19.3436L23.6832 19.401ZM23.1511 18.6046L23.045 18.7106V18.7106L23.1511 18.6046ZM22.4778 18.1274L22.3742 18.019L22.2174 18.1688L22.4129 18.2627L22.4778 18.1274ZM22.5176 18.0885L22.6237 18.1946V18.1946L22.5176 18.0885ZM22.5176 14.6167L22.4115 14.7227L22.5176 14.6167ZM20.5848 13.8976H20.4348V14.0476H20.5848V13.8976ZM20.4497 13.135L20.3437 13.2411L20.3437 13.2411L20.4497 13.135ZM19.7978 13.135L19.9038 13.2411V13.2411L19.7978 13.135ZM19.6627 13.8976V14.0476H19.8127V13.8976H19.6627ZM19.1607 13.8976H19.0107V14.0476H19.1607V13.8976ZM19.0257 13.135L18.9196 13.2411L19.0257 13.135ZM18.3737 13.135L18.2676 13.029L18.2676 13.029L18.3737 13.135ZM20.1304 21.8734L20.1282 22.0234H20.1304V21.8734ZM22.4991 21.4244L22.6051 21.5305L22.4991 21.4244ZM22.4991 19.2566L22.6051 19.1505L22.6051 19.1505L22.4991 19.2566ZM20.7854 18.8076V18.6576H20.7853L20.7854 18.8076ZM20.7817 18.8076L20.7817 18.9576H20.7818L20.7817 18.8076ZM18.7619 18.8076L18.7619 18.6576H18.6119V18.8076H18.7619ZM18.7619 21.8734H18.6119V22.0234H18.7619V21.8734ZM20.1171 21.8734V22.0234L20.1193 22.0234L20.1171 21.8734ZM20.7855 17.8855V18.0355L20.7859 18.0355L20.7855 17.8855ZM21.8656 15.2687L21.7595 15.3747L21.8656 15.2687ZM18.7619 14.8197V14.6697H18.6119V14.8197H18.7619ZM18.7619 17.8855H18.6119V18.0355H18.7619V17.8855ZM18.3887 13.9018V13.461H18.0887V13.9018H18.3887ZM18.0809 14.1387C18.1293 14.0904 18.1919 14.0596 18.2589 14.0505L18.2184 13.7532C18.0868 13.7711 17.9638 13.8316 17.8688 13.9266L18.0809 14.1387ZM17.9898 14.3587C17.9898 14.2762 18.0226 14.1971 18.0809 14.1387L17.8688 13.9266C17.7542 14.0412 17.6898 14.1966 17.6898 14.3587H17.9898ZM17.9898 18.3465V14.3587H17.6898V18.3465H17.9898ZM17.9898 18.3465V18.3465H17.6898V18.3465H17.9898ZM17.9898 22.3344V18.3465H17.6898V22.3344H17.9898ZM18.0809 22.5544C18.0226 22.496 17.9898 22.4169 17.9898 22.3344H17.6898C17.6898 22.4965 17.7542 22.6519 17.8688 22.7665L18.0809 22.5544ZM18.2589 22.6426C18.1919 22.6335 18.1293 22.6027 18.0809 22.5544L17.8688 22.7665C17.9638 22.8615 18.0868 22.922 18.2184 22.9399L18.2589 22.6426ZM18.3887 23.232V22.7913H18.0887V23.232H18.3887ZM18.4798 23.4519C18.4214 23.3936 18.3887 23.3145 18.3887 23.232H18.0887C18.0887 23.3941 18.153 23.5495 18.2676 23.6641L18.4798 23.4519ZM18.6997 23.543C18.6172 23.543 18.5381 23.5103 18.4798 23.4519L18.2676 23.6641C18.3822 23.7787 18.5376 23.843 18.6997 23.843V23.543ZM18.9196 23.4519C18.8613 23.5103 18.7822 23.543 18.6997 23.543V23.843C18.8617 23.843 19.0172 23.7787 19.1317 23.6641L18.9196 23.4519ZM19.0107 23.232C19.0107 23.3145 18.9779 23.3936 18.9196 23.4519L19.1317 23.6641C19.2463 23.5495 19.3107 23.3941 19.3107 23.232H19.0107ZM19.0107 22.7955V23.232H19.3107V22.7955H19.0107ZM19.6627 22.6455H19.1607V22.9455H19.6627V22.6455ZM19.8127 23.232V22.7955H19.5127V23.232H19.8127ZM19.9038 23.4519C19.8455 23.3936 19.8127 23.3145 19.8127 23.232H19.5127C19.5127 23.3941 19.5771 23.5495 19.6917 23.6641L19.9038 23.4519ZM20.1237 23.543C20.0413 23.543 19.9622 23.5103 19.9038 23.4519L19.6917 23.6641C19.8063 23.7787 19.9617 23.843 20.1237 23.843V23.543ZM20.3437 23.4519C20.2853 23.5103 20.2062 23.543 20.1237 23.543V23.843C20.2858 23.843 20.4412 23.7787 20.5558 23.6641L20.3437 23.4519ZM20.4348 23.232C20.4348 23.3145 20.402 23.3936 20.3437 23.4519L20.5558 23.6641C20.6704 23.5495 20.7348 23.3941 20.7348 23.232H20.4348ZM20.4348 22.7955V23.232H20.7348V22.7955H20.4348ZM21.4151 22.6455H20.5848V22.9455H21.4151V22.6455ZM22.2972 22.47C22.0175 22.5858 21.7178 22.6455 21.4151 22.6455V22.9455C21.7572 22.9455 22.096 22.8781 22.412 22.7472L22.2972 22.47ZM23.045 21.9704C22.8309 22.1844 22.5768 22.3542 22.2972 22.47L22.412 22.7472C22.7281 22.6163 23.0152 22.4244 23.2571 22.1825L23.045 21.9704ZM23.5446 21.2226C23.4288 21.5022 23.259 21.7563 23.045 21.9704L23.2571 22.1825C23.499 21.9406 23.6909 21.6534 23.8218 21.3374L23.5446 21.2226ZM23.7201 20.3405C23.7201 20.6432 23.6605 20.9429 23.5446 21.2226L23.8218 21.3374C23.9527 21.0213 24.0201 20.6826 24.0201 20.3405H23.7201ZM23.5446 19.4584C23.6605 19.7381 23.7201 20.0378 23.7201 20.3405H24.0201C24.0201 19.9984 23.9527 19.6597 23.8218 19.3436L23.5446 19.4584ZM23.045 18.7106C23.259 18.9247 23.4288 19.1788 23.5446 19.4584L23.8218 19.3436C23.6909 19.0276 23.499 18.7404 23.2571 18.4985L23.045 18.7106ZM22.4129 18.2627C22.6471 18.3751 22.8609 18.5265 23.045 18.7106L23.2571 18.4985C23.049 18.2904 22.8074 18.1193 22.5427 17.9922L22.4129 18.2627ZM22.4115 17.9825C22.3992 17.9948 22.3867 18.007 22.3742 18.019L22.5814 18.2359C22.5957 18.2223 22.6097 18.2085 22.6237 18.1946L22.4115 17.9825ZM23.0866 16.3526C23.0866 16.9639 22.8438 17.5502 22.4115 17.9825L22.6237 18.1946C23.1122 17.7061 23.3866 17.0435 23.3866 16.3526H23.0866ZM22.4115 14.7227C22.8438 15.155 23.0866 15.7413 23.0866 16.3526H23.3866C23.3866 15.6617 23.1122 14.9991 22.6237 14.5106L22.4115 14.7227ZM20.7817 14.0476C21.393 14.0476 21.9793 14.2905 22.4115 14.7227L22.6237 14.5106C22.1351 14.0221 21.4725 13.7476 20.7817 13.7476V14.0476ZM20.5848 14.0476H20.7817V13.7476H20.5848V14.0476ZM20.4348 13.461V13.8976H20.7348V13.461H20.4348ZM20.3437 13.2411C20.402 13.2994 20.4348 13.3785 20.4348 13.461H20.7348C20.7348 13.299 20.6704 13.1436 20.5558 13.029L20.3437 13.2411ZM20.1237 13.15C20.2062 13.15 20.2853 13.1828 20.3437 13.2411L20.5558 13.029C20.4412 12.9144 20.2858 12.85 20.1237 12.85V13.15ZM19.9038 13.2411C19.9622 13.1828 20.0413 13.15 20.1237 13.15V12.85C19.9617 12.85 19.8063 12.9144 19.6917 13.029L19.9038 13.2411ZM19.8127 13.461C19.8127 13.3785 19.8455 13.2994 19.9038 13.2411L19.6917 13.029C19.5771 13.1436 19.5127 13.299 19.5127 13.461H19.8127ZM19.8127 13.8976V13.461H19.5127V13.8976H19.8127ZM19.1607 14.0476H19.6627V13.7476H19.1607V14.0476ZM19.0107 13.461V13.8976H19.3107V13.461H19.0107ZM18.9196 13.2411C18.9779 13.2994 19.0107 13.3785 19.0107 13.461H19.3107C19.3107 13.299 19.2463 13.1436 19.1317 13.029L18.9196 13.2411ZM18.6997 13.15C18.7822 13.15 18.8613 13.1828 18.9196 13.2411L19.1317 13.029C19.0172 12.9144 18.8617 12.85 18.6997 12.85V13.15ZM18.4798 13.2411C18.5381 13.1828 18.6172 13.15 18.6997 13.15V12.85C18.5376 12.85 18.3822 12.9144 18.2676 13.029L18.4798 13.2411ZM18.3887 13.461C18.3887 13.3785 18.4214 13.2994 18.4798 13.2411L18.2676 13.029C18.153 13.1436 18.0887 13.299 18.0887 13.461H18.3887ZM21.4151 21.7234H20.1304V22.0234H21.4151V21.7234ZM22.393 21.3184C22.1336 21.5777 21.7819 21.7234 21.4151 21.7234V22.0234C21.8615 22.0234 22.2895 21.8461 22.6051 21.5305L22.393 21.3184ZM22.798 20.3405C22.798 20.7073 22.6523 21.059 22.393 21.3184L22.6051 21.5305C22.9207 21.2149 23.098 20.7868 23.098 20.3405H22.798ZM22.393 19.3626C22.6523 19.622 22.798 19.9737 22.798 20.3405H23.098C23.098 19.8942 22.9207 19.4661 22.6051 19.1505L22.393 19.3626ZM21.4151 18.9576C21.7819 18.9576 22.1336 19.1033 22.393 19.3626L22.6051 19.1505C22.2895 18.8349 21.8615 18.6576 21.4151 18.6576V18.9576ZM20.7854 18.9576H21.4151V18.6576H20.7854V18.9576ZM20.7818 18.9576L20.7855 18.9576L20.7853 18.6576L20.7815 18.6576L20.7818 18.9576ZM18.7619 18.9576L20.7817 18.9576L20.7817 18.6576L18.7619 18.6576L18.7619 18.9576ZM18.9119 21.8734V18.8076H18.6119V21.8734H18.9119ZM20.1171 21.7234H18.7619V22.0234H20.1171V21.7234ZM20.1193 22.0234C20.1208 22.0234 20.1223 22.0234 20.1237 22.0234V21.7234C20.1208 21.7234 20.1179 21.7234 20.115 21.7234L20.1193 22.0234ZM20.1237 22.0234C20.1252 22.0234 20.1267 22.0234 20.1282 22.0234L20.1325 21.7234C20.1296 21.7234 20.1267 21.7234 20.1237 21.7234V22.0234ZM21.7595 17.3305C21.501 17.589 21.1506 17.7346 20.7851 17.7355L20.7859 18.0355C21.2307 18.0344 21.657 17.8572 21.9717 17.5426L21.7595 17.3305ZM22.1646 16.3526C22.1646 16.7194 22.0189 17.0711 21.7595 17.3305L21.9717 17.5426C22.2873 17.227 22.4646 16.7989 22.4646 16.3526H22.1646ZM21.7595 15.3747C22.0189 15.6341 22.1646 15.9858 22.1646 16.3526H22.4646C22.4646 15.9063 22.2873 15.4782 21.9717 15.1626L21.7595 15.3747ZM20.7817 14.9697C21.1484 14.9697 21.5002 15.1154 21.7595 15.3747L21.9717 15.1626C21.6561 14.847 21.228 14.6697 20.7817 14.6697V14.9697ZM18.7619 14.9697H20.7817V14.6697H18.7619V14.9697ZM18.9119 17.8855V14.8197H18.6119V17.8855H18.9119ZM20.7855 17.7355H18.7619V18.0355H20.7855V17.7355Z" fill="white"/>
</svg>
