<svg width="32" height="32" viewBox="0 0 32 32" fill="none" xmlns="http://www.w3.org/2000/svg">
<path fill-rule="evenodd" clip-rule="evenodd" d="M3.2 0C4.95999 0 6.39999 1.44 6.39999 3.2C6.39999 4.95999 4.95999 6.39999 3.2 6.39999C1.44 6.39999 0 4.95999 0 3.2C0 1.44 1.44 0 3.2 0Z" fill="white"/>
<path fill-rule="evenodd" clip-rule="evenodd" d="M3.2 12.7998C4.95999 12.7998 6.39999 14.2398 6.39999 15.9998C6.39999 17.7598 4.95999 19.1998 3.2 19.1998C1.44 19.1998 0 17.7598 0 15.9998C0 14.2398 1.44 12.7998 3.2 12.7998Z" fill="white"/>
<path fill-rule="evenodd" clip-rule="evenodd" d="M3.2 24.8887C4.95999 24.8887 6.39999 26.3287 6.39999 28.0887C6.39999 29.8487 4.95999 31.2887 3.2 31.2887C1.44 31.2887 0 29.8487 0 28.0887C0 26.3287 1.44 24.8887 3.2 24.8887Z" fill="white"/>
<path fill-rule="evenodd" clip-rule="evenodd" d="M16.0008 0C17.7608 0 19.2008 1.44 19.2008 3.2C19.2008 4.95999 17.7608 6.39999 16.0008 6.39999C14.2408 6.39999 12.8008 4.95999 12.8008 3.2C12.8008 1.44 14.2408 0 16.0008 0Z" fill="white"/>
<path fill-rule="evenodd" clip-rule="evenodd" d="M16.0008 12.7998C17.7608 12.7998 19.2008 14.2398 19.2008 15.9998C19.2008 17.7598 17.7608 19.1998 16.0008 19.1998C14.2408 19.1998 12.8008 17.7598 12.8008 15.9998C12.8008 14.2398 14.2408 12.7998 16.0008 12.7998Z" fill="white"/>
<path fill-rule="evenodd" clip-rule="evenodd" d="M16.0008 25.6001C17.7608 25.6001 19.2008 27.0401 19.2008 28.8001C19.2008 30.5601 17.7608 32.0001 16.0008 32.0001C14.2408 32.0001 12.8008 30.5601 12.8008 28.8001C12.8008 27.0401 14.2408 25.6001 16.0008 25.6001Z" fill="white"/>
<path fill-rule="evenodd" clip-rule="evenodd" d="M28.7996 0C30.5596 0 31.9996 1.44 31.9996 3.2C31.9996 4.95999 30.5596 6.39999 28.7996 6.39999C27.0396 6.39999 25.5996 4.95999 25.5996 3.2C25.5996 1.44 27.0396 0 28.7996 0Z" fill="white"/>
<path fill-rule="evenodd" clip-rule="evenodd" d="M28.7996 12.7998C30.5596 12.7998 31.9996 14.2398 31.9996 15.9998C31.9996 17.7598 30.5596 19.1998 28.7996 19.1998C27.0396 19.1998 25.5996 17.7598 25.5996 15.9998C25.5996 14.2398 27.0396 12.7998 28.7996 12.7998Z" fill="white"/>
<path fill-rule="evenodd" clip-rule="evenodd" d="M28.7996 25.6001C30.5596 25.6001 31.9996 27.0401 31.9996 28.8001C31.9996 30.5601 30.5596 32.0001 28.7996 32.0001C27.0396 32.0001 25.5996 30.5601 25.5996 28.8001C25.5996 27.0401 27.0396 25.6001 28.7996 25.6001Z" fill="white"/>
</svg>
