<svg width="40" height="40" viewBox="0 0 40 40" fill="none" xmlns="http://www.w3.org/2000/svg">
<path d="M39.9975 13.9091V12.1477C39.9951 11.9682 39.9098 11.7644 39.7191 11.649L21.5343 0.43796C20.5872 -0.145987 19.4104 -0.145987 18.4633 0.43796L0.278491 11.649C0.127016 11.7453 -0.00172579 11.9247 7.09701e-05 12.1477V13.909C-0.0107877 15.2869 1.22601 16.401 2.61428 16.2563C2.44179 16.5737 2.34367 16.9372 2.34367 17.3233C2.34367 18.5926 3.4154 19.6235 4.68727 19.562V30.9098C4.68727 31.2334 4.9496 31.4957 5.27317 31.4957C5.59674 31.4957 5.85907 31.2334 5.85907 30.9098V19.562H9.39407V33.174H5.85907V29.644C5.85907 29.3205 5.59674 29.0581 5.27317 29.0581C4.9496 29.0581 4.68727 29.3205 4.68727 29.644V33.174C3.42079 33.1339 2.34367 34.1255 2.34367 35.4127C2.34367 35.7988 2.44179 36.1623 2.61428 36.4797H1.36717C0.613391 36.4797 7.09701e-05 37.0937 7.09701e-05 37.8484V38.6313C7.09701e-05 39.386 0.613391 40 1.36717 40H38.6304C39.3842 40 39.9975 39.386 39.9975 38.6313V37.8484C39.9975 37.0937 39.3842 36.4797 38.6304 36.4797H37.3833C37.5558 36.1624 37.6539 35.7988 37.6539 35.4127C37.6539 34.133 36.5817 33.1197 35.3103 33.174V19.5621C36.569 19.6018 37.6539 18.6115 37.6539 17.3234C37.6539 16.9373 37.5558 16.5737 37.3833 16.2564C38.7399 16.3393 40.0077 15.3457 39.9975 13.9091ZM4.57899 18.3903C3.99255 18.3903 3.51547 17.9117 3.51547 17.3234C3.51547 16.735 3.99255 16.2564 4.57899 16.2564H10.6742C11.2607 16.2564 11.7378 16.735 11.7378 17.3234C11.7378 17.9117 11.2607 18.3903 10.6742 18.3903H4.57899ZM12.6389 16.2564H14.9865C14.814 16.5738 14.7159 16.9373 14.7159 17.3234C14.7159 18.5926 15.7876 19.6236 17.0595 19.5621V33.174C15.7934 33.1344 14.7159 34.1252 14.7159 35.4128C14.7159 35.7989 14.814 36.1624 14.9865 36.4798H12.6389C12.8114 36.1624 12.9096 35.7989 12.9096 35.4128C12.9096 34.1331 11.8374 33.1198 10.566 33.174V19.5621C11.8252 19.6018 12.9096 18.6115 12.9096 17.3234C12.9096 16.9373 12.8114 16.5737 12.6389 16.2564ZM25.0111 16.2564H27.3587C27.1862 16.5738 27.0881 16.9373 27.0881 17.3234C27.0881 18.5926 28.1598 19.6236 29.4317 19.5621V33.174C28.1658 33.1348 27.0881 34.125 27.0881 35.4128C27.0881 35.7989 27.1862 36.1624 27.3587 36.4798H25.0111C25.1836 36.1624 25.2817 35.7989 25.2817 35.4128C25.2817 34.133 24.2095 33.1198 22.9381 33.174V19.5621C24.1971 19.6019 25.2817 18.6115 25.2817 17.3234C25.2817 16.9373 25.1836 16.5737 25.0111 16.2564ZM23.0465 34.3458C23.6328 34.3458 24.1099 34.8244 24.1099 35.4127C24.1099 36.0011 23.6328 36.4797 23.0465 36.4797H16.9512C16.3649 36.4797 15.8878 36.0011 15.8878 35.4127C15.8878 34.8244 16.3649 34.3458 16.9512 34.3458H23.0465ZM18.2313 33.174V19.5621H21.7663V33.174L18.2313 33.174ZM23.0465 18.3903H16.9512C16.3649 18.3903 15.8878 17.9117 15.8878 17.3234C15.8878 16.735 16.3649 16.2564 16.9512 16.2564H23.0465C23.6328 16.2564 24.1099 16.735 24.1099 17.3234C24.1099 17.9117 23.6328 18.3903 23.0465 18.3903ZM4.57899 34.3458H10.6742C11.2607 34.3458 11.7378 34.8244 11.7378 35.4127C11.7378 36.0011 11.2607 36.4797 10.6742 36.4797H4.57899C3.99255 36.4797 3.51547 36.0011 3.51547 35.4127C3.51547 34.8244 3.99255 34.3458 4.57899 34.3458ZM38.6304 37.6515C38.738 37.6515 38.8257 37.7398 38.8257 37.8484V38.6313C38.8257 38.7399 38.738 38.8282 38.6304 38.8282H1.36717C1.25952 38.8282 1.17187 38.7399 1.17187 38.6313V37.8484C1.17187 37.7398 1.25952 37.6515 1.36717 37.6515H38.6304ZM35.4186 34.3458C36.0051 34.3458 36.4822 34.8244 36.4822 35.4127C36.4822 36.0011 36.0051 36.4797 35.4186 36.4797H29.3234C28.737 36.4797 28.2599 36.0011 28.2599 35.4127C28.2599 34.8244 28.737 34.3458 29.3234 34.3458H35.4186ZM30.6035 33.174V19.5621H34.1385V33.174L30.6035 33.174ZM35.4186 18.3903H29.3234C28.737 18.3903 28.2599 17.9117 28.2599 17.3234C28.2599 16.735 28.737 16.2564 29.3234 16.2564H35.4186C36.0051 16.2564 36.4822 16.735 36.4822 17.3234C36.4821 17.9117 36.005 18.3903 35.4186 18.3903ZM2.34367 15.0846C1.69754 15.0846 1.17187 14.5573 1.17187 13.9091V12.7336H34.2412C34.5648 12.7336 34.8271 12.4712 34.8271 12.1477C34.8271 11.8241 34.5648 11.5618 34.2412 11.5618H2.65279L19.0783 1.43547C19.6461 1.08542 20.3516 1.08542 20.9193 1.43547L37.3448 11.5618H30.9754C30.6518 11.5618 30.3895 11.8241 30.3895 12.1477C30.3895 12.4712 30.6518 12.7336 30.9754 12.7336H38.8257V13.909C38.8257 14.5572 38.3 15.0845 37.6539 15.0845L2.34367 15.0846Z" fill="white"/>
</svg>
