<svg width="40" height="40" viewBox="0 0 40 40" fill="none" xmlns="http://www.w3.org/2000/svg">
<path d="M11.4725 21.8654C9.41709 21.8654 7.40782 21.2559 5.69879 20.114C3.98976 18.9721 2.65774 17.349 1.87116 15.45C1.08458 13.5511 0.878776 11.4615 1.27977 9.44555C1.68076 7.42961 2.67055 5.57785 4.12396 4.12445C5.57736 2.67104 7.42912 1.68125 9.44505 1.28026C11.461 0.879264 13.5506 1.08507 15.4495 1.87165C17.3485 2.65823 18.9716 3.99025 20.1135 5.69928C21.2554 7.40831 21.8649 9.41758 21.8649 11.473C21.8618 14.2283 20.7659 16.8698 18.8176 18.8181C16.8693 20.7664 14.2278 21.8623 11.4725 21.8654ZM11.4725 2.16219C9.63088 2.16219 7.83061 2.70831 6.29935 3.73148C4.76809 4.75465 3.57463 6.20891 2.8699 7.91037C2.16516 9.61183 1.98079 11.4841 2.34012 13.2903C2.69944 15.0965 3.58632 16.7557 4.88859 18.0579C6.19086 19.3601 7.85003 20.2468 9.65629 20.6061C11.4626 20.9653 13.3348 20.7808 15.0362 20.076C16.7376 19.3711 18.1918 18.1776 19.2149 16.6463C20.238 15.115 20.784 13.3146 20.7839 11.473C20.7811 9.00437 19.7992 6.63762 18.0536 4.89208C16.308 3.14654 13.9412 2.16477 11.4725 2.16219Z" fill="white" stroke="white" stroke-width="0.3"/>
<path d="M12.4619 12.0136H9.55324C9.40988 12.0136 9.27239 11.9566 9.17102 11.8553C9.06965 11.7539 9.0127 11.6164 9.0127 11.4731V6.79738C9.0127 6.65402 9.06965 6.51653 9.17102 6.41516C9.27239 6.31379 9.40988 6.25684 9.55324 6.25684H12.4619C13.2253 6.25684 13.9574 6.56009 14.4972 7.09989C15.037 7.63969 15.3403 8.37182 15.3403 9.13521C15.3403 9.89861 15.037 10.6307 14.4972 11.1705C13.9574 11.7103 13.2253 12.0136 12.4619 12.0136ZM10.0938 10.9325H12.4619C12.9386 10.9325 13.3957 10.7432 13.7328 10.4061C14.0698 10.069 14.2592 9.61189 14.2592 9.13521C14.2592 8.65854 14.0698 8.20139 13.7328 7.86433C13.3957 7.52727 12.9386 7.33792 12.4619 7.33792H10.0938V10.9325Z" fill="white" stroke="white" stroke-width="0.3"/>
<path d="M13.2046 16.6894H9.55324C9.40988 16.6894 9.27239 16.6324 9.17102 16.5311C9.06965 16.4297 9.0127 16.2922 9.0127 16.1488V11.4732C9.0127 11.3298 9.06965 11.1923 9.17102 11.0909C9.27239 10.9896 9.40988 10.9326 9.55324 10.9326H13.2046C13.5826 10.9326 13.9569 11.0071 14.3061 11.1517C14.6553 11.2964 14.9726 11.5084 15.2399 11.7757C15.5072 12.043 15.7192 12.3603 15.8639 12.7095C16.0085 13.0587 16.083 13.433 16.083 13.811C16.083 14.189 16.0085 14.5633 15.8639 14.9125C15.7192 15.2617 15.5072 15.579 15.2399 15.8463C14.9726 16.1136 14.6553 16.3256 14.3061 16.4703C13.9569 16.6149 13.5826 16.6894 13.2046 16.6894ZM10.0938 15.6083H13.2046C13.6813 15.6083 14.1384 15.4189 14.4755 15.0819C14.8125 14.7448 15.0019 14.2877 15.0019 13.811C15.0019 13.3343 14.8125 12.8772 14.4755 12.5401C14.1384 12.2031 13.6813 12.0137 13.2046 12.0137H10.0938V15.6083Z" fill="white" stroke="white" stroke-width="0.3"/>
<path d="M9.55341 7.33792H8.71828C8.57491 7.33792 8.43743 7.28097 8.33606 7.1796C8.23468 7.07823 8.17773 6.94074 8.17773 6.79738C8.17773 6.65402 8.23468 6.51653 8.33606 6.41516C8.43743 6.31379 8.57491 6.25684 8.71828 6.25684H9.55341C9.69677 6.25684 9.83426 6.31379 9.93563 6.41516C10.037 6.51653 10.094 6.65402 10.094 6.79738C10.094 6.94074 10.037 7.07823 9.93563 7.1796C9.83426 7.28097 9.69677 7.33792 9.55341 7.33792Z" fill="white" stroke="white" stroke-width="0.3"/>
<path d="M10.021 7.33811C9.87765 7.33811 9.74016 7.28116 9.63879 7.17979C9.53742 7.07841 9.48047 6.94093 9.48047 6.79757V5.74513C9.48047 5.60177 9.53742 5.46428 9.63879 5.36291C9.74016 5.26154 9.87765 5.20459 10.021 5.20459C10.1644 5.20459 10.3019 5.26154 10.4032 5.36291C10.5046 5.46428 10.5615 5.60177 10.5615 5.74513V6.79757C10.5615 6.94093 10.5046 7.07841 10.4032 7.17979C10.3019 7.28116 10.1644 7.33811 10.021 7.33811Z" fill="white" stroke="white" stroke-width="0.3"/>
<path d="M11.6909 7.33811C11.5476 7.33811 11.4101 7.28116 11.3087 7.17979C11.2073 7.07841 11.1504 6.94093 11.1504 6.79757V5.74513C11.1504 5.60177 11.2073 5.46428 11.3087 5.36291C11.4101 5.26154 11.5476 5.20459 11.6909 5.20459C11.8343 5.20459 11.9718 5.26154 12.0731 5.36291C12.1745 5.46428 12.2315 5.60177 12.2315 5.74513V6.79757C12.2315 6.94093 12.1745 7.07841 12.0731 7.17979C11.9718 7.28116 11.8343 7.33811 11.6909 7.33811Z" fill="white" stroke="white" stroke-width="0.3"/>
<path d="M10.021 17.7414C9.87765 17.7414 9.74016 17.6845 9.63879 17.5831C9.53742 17.4817 9.48047 17.3442 9.48047 17.2009V16.1485C9.48047 16.0051 9.53742 15.8676 9.63879 15.7662C9.74016 15.6649 9.87765 15.6079 10.021 15.6079C10.1644 15.6079 10.3019 15.6649 10.4032 15.7662C10.5046 15.8676 10.5615 16.0051 10.5615 16.1485V17.2009C10.5615 17.3442 10.5046 17.4817 10.4032 17.5831C10.3019 17.6845 10.1644 17.7414 10.021 17.7414Z" fill="white" stroke="white" stroke-width="0.3"/>
<path d="M11.6909 17.7414C11.5476 17.7414 11.4101 17.6845 11.3087 17.5831C11.2073 17.4817 11.1504 17.3442 11.1504 17.2009V16.1485C11.1504 16.0051 11.2073 15.8676 11.3087 15.7662C11.4101 15.6649 11.5476 15.6079 11.6909 15.6079C11.8343 15.6079 11.9718 15.6649 12.0731 15.7662C12.1745 15.8676 12.2315 16.0051 12.2315 16.1485V17.2009C12.2315 17.3442 12.1745 17.4817 12.0731 17.5831C11.9718 17.6845 11.8343 17.7414 11.6909 17.7414Z" fill="white" stroke="white" stroke-width="0.3"/>
<path d="M9.55341 16.689H8.71828C8.57491 16.689 8.43743 16.632 8.33606 16.5307C8.23468 16.4293 8.17773 16.2918 8.17773 16.1484C8.17773 16.0051 8.23468 15.8676 8.33606 15.7662C8.43743 15.6649 8.57491 15.6079 8.71828 15.6079H9.55341C9.69677 15.6079 9.83426 15.6649 9.93563 15.7662C10.037 15.8676 10.094 16.0051 10.094 16.1484C10.094 16.2918 10.037 16.4293 9.93563 16.5307C9.83426 16.632 9.69677 16.689 9.55341 16.689Z" fill="white" stroke="white" stroke-width="0.3"/>
<path d="M28.5268 38.9191C26.4713 38.9193 24.4619 38.3098 22.7528 37.1679C21.0437 36.026 19.7116 34.403 18.925 32.504C18.1383 30.605 17.9325 28.5154 18.3335 26.4994C18.7344 24.4834 19.7242 22.6316 21.1777 21.1782C22.6311 19.7247 24.4829 18.7349 26.4989 18.3339C28.5149 17.933 30.6045 18.1388 32.5035 18.9255C34.4025 19.7121 36.0256 21.0442 37.1674 22.7533C38.3093 24.4624 38.9188 26.4718 38.9187 28.5273C38.9154 31.2823 37.8195 33.9236 35.8713 35.8718C33.9232 37.8199 31.2819 38.9159 28.5268 38.9191ZM28.5268 19.2159C26.6851 19.2158 24.8848 19.7618 23.3535 20.7849C21.8222 21.808 20.6287 23.2622 19.9238 24.9636C19.219 26.665 19.0345 28.5372 19.3937 30.3435C19.7529 32.1497 20.6397 33.8089 21.9419 35.1112C23.2441 36.4135 24.9032 37.3003 26.7095 37.6596C28.5157 38.019 30.3879 37.8346 32.0894 37.1299C33.7909 36.4251 35.2451 35.2317 36.2683 33.7004C37.2915 32.1692 37.8376 30.3689 37.8376 28.5273C37.8347 26.0587 36.8529 23.6921 35.1074 21.9465C33.3619 20.2009 30.9953 19.2189 28.5268 19.2159Z" fill="white" stroke="white" stroke-width="0.3"/>
<path d="M28.5269 23.5744C28.3835 23.5744 28.246 23.5175 28.1446 23.4161C28.0433 23.3147 27.9863 23.1772 27.9863 23.0339V21.9868C27.9863 21.8435 28.0433 21.706 28.1446 21.6046C28.246 21.5032 28.3835 21.4463 28.5269 21.4463C28.6702 21.4463 28.8077 21.5032 28.9091 21.6046C29.0105 21.706 29.0674 21.8435 29.0674 21.9868V23.0339C29.0674 23.1772 29.0105 23.3147 28.9091 23.4161C28.8077 23.5175 28.6702 23.5744 28.5269 23.5744Z" fill="white" stroke="white" stroke-width="0.3"/>
<path d="M28.5269 35.6077C28.3835 35.6077 28.246 35.5507 28.1446 35.4493C28.0433 35.348 27.9863 35.2105 27.9863 35.0671V34.0195C27.9863 33.8762 28.0433 33.7387 28.1446 33.6373C28.246 33.536 28.3835 33.479 28.5269 33.479C28.6702 33.479 28.8077 33.536 28.9091 33.6373C29.0105 33.7387 29.0674 33.8762 29.0674 34.0195V35.0671C29.0674 35.2105 29.0105 35.348 28.9091 35.4493C28.8077 35.5507 28.6702 35.6077 28.5269 35.6077Z" fill="white" stroke="white" stroke-width="0.3"/>
<path d="M28.5268 34.5601C27.6554 34.5591 26.8199 34.2125 26.2037 33.5963C25.5874 32.9801 25.2408 32.1446 25.2398 31.2731C25.2398 31.1298 25.2967 30.9923 25.3981 30.8909C25.4995 30.7895 25.637 30.7326 25.7803 30.7326C25.9237 30.7326 26.0612 30.7895 26.1626 30.8909C26.2639 30.9923 26.3209 31.1298 26.3209 31.2731C26.3208 31.7094 26.4501 32.136 26.6924 32.4988C26.9347 32.8617 27.2792 33.1445 27.6823 33.3115C28.0854 33.4786 28.5289 33.5223 28.9569 33.4373C29.3848 33.3522 29.7779 33.1422 30.0865 32.8337C30.395 32.5252 30.6052 32.1321 30.6904 31.7042C30.7755 31.2763 30.7319 30.8327 30.5649 30.4296C30.398 30.0265 30.1152 29.6819 29.7525 29.4395C29.3897 29.1971 28.9632 29.0677 28.5268 29.0677C27.8767 29.0678 27.2411 28.8751 26.7005 28.514C26.1599 28.1529 25.7385 27.6396 25.4896 27.0389C25.2408 26.4383 25.1756 25.7774 25.3024 25.1397C25.4291 24.5021 25.7421 23.9163 26.2018 23.4566C26.6615 22.9968 27.2472 22.6837 27.8848 22.5569C28.5225 22.43 29.1834 22.495 29.7841 22.7438C30.3847 22.9926 30.8981 23.4139 31.2593 23.9544C31.6205 24.495 31.8133 25.1305 31.8133 25.7807C31.8133 25.924 31.7564 26.0615 31.655 26.1629C31.5536 26.2643 31.4161 26.3212 31.2728 26.3212C31.1294 26.3212 30.9919 26.2643 30.8906 26.1629C30.7892 26.0615 30.7322 25.924 30.7322 25.7807C30.7322 25.3444 30.6029 24.9178 30.3604 24.5551C30.118 24.1923 29.7735 23.9095 29.3703 23.7426C28.9672 23.5757 28.5237 23.532 28.0957 23.6172C27.6678 23.7023 27.2747 23.9125 26.9663 24.221C26.6578 24.5296 26.4477 24.9227 26.3627 25.3507C26.2776 25.7786 26.3214 26.2222 26.4884 26.6252C26.6555 27.0283 26.9383 27.3728 27.3011 27.6151C27.664 27.8574 28.0905 27.9867 28.5268 27.9866C29.3912 27.9977 30.2165 28.3489 30.8238 28.9641C31.4312 29.5792 31.7717 30.4089 31.7717 31.2734C31.7717 32.1379 31.4312 32.9675 30.8238 33.5827C30.2165 34.1979 29.3912 34.5491 28.5268 34.5601Z" fill="white" stroke="white" stroke-width="0.3"/>
<path d="M14.5398 35.5677H4.90089C4.75753 35.5677 4.62004 35.5108 4.51867 35.4094C4.4173 35.308 4.36035 35.1705 4.36035 35.0272V26.7866C4.36035 26.6433 4.4173 26.5058 4.51867 26.4044C4.62004 26.303 4.75753 26.2461 4.90089 26.2461C5.04425 26.2461 5.18174 26.303 5.28311 26.4044C5.38448 26.5058 5.44143 26.6433 5.44143 26.7866V34.4866H14.5398C14.6832 34.4866 14.8207 34.5436 14.922 34.645C15.0234 34.7463 15.0804 34.8838 15.0804 35.0272C15.0804 35.1705 15.0234 35.308 14.922 35.4094C14.8207 35.5108 14.6832 35.5677 14.5398 35.5677Z" fill="white" stroke="white" stroke-width="0.3"/>
<path d="M7.14507 30.0742C7.0649 30.0743 6.98572 30.0565 6.91326 30.0222C6.84081 29.9879 6.77689 29.9379 6.72615 29.8758L4.90128 27.6412L3.07642 29.8758C3.03232 29.9331 2.97717 29.981 2.91423 30.0167C2.85129 30.0523 2.78183 30.0749 2.70999 30.0832C2.63814 30.0915 2.56536 30.0853 2.49595 30.065C2.42654 30.0446 2.36193 30.0106 2.30592 29.9648C2.24992 29.9191 2.20367 29.8625 2.16991 29.7985C2.13615 29.7346 2.11558 29.6645 2.1094 29.5924C2.10322 29.5204 2.11156 29.4478 2.13394 29.379C2.15631 29.3103 2.19226 29.2467 2.23966 29.192L4.4829 26.4445C4.53535 26.3852 4.59979 26.3377 4.67196 26.3052C4.74414 26.2727 4.82239 26.2559 4.90155 26.2559C4.98071 26.2559 5.05897 26.2727 5.13114 26.3052C5.20331 26.3377 5.26776 26.3852 5.3202 26.4445L7.56344 29.192C7.62804 29.2712 7.66885 29.3671 7.68115 29.4686C7.69345 29.5701 7.67674 29.6729 7.63294 29.7653C7.58914 29.8576 7.52006 29.9357 7.43371 29.9903C7.34736 30.045 7.24727 30.0741 7.14507 30.0742Z" fill="white" stroke="white" stroke-width="0.3"/>
<path d="M35.0974 13.7542C34.9541 13.7542 34.8166 13.6973 34.7152 13.5959C34.6138 13.4945 34.5569 13.3571 34.5569 13.2137V5.5137H25.4585C25.3151 5.5137 25.1777 5.45675 25.0763 5.35538C24.9749 5.25401 24.918 5.11652 24.918 4.97316C24.918 4.8298 24.9749 4.69231 25.0763 4.59094C25.1777 4.48957 25.3151 4.43262 25.4585 4.43262H35.0974C35.2408 4.43262 35.3783 4.48957 35.4796 4.59094C35.581 4.69231 35.638 4.8298 35.638 4.97316V13.2137C35.638 13.3571 35.581 13.4945 35.4796 13.5959C35.3783 13.6973 35.2408 13.7542 35.0974 13.7542Z" fill="white" stroke="white" stroke-width="0.3"/>
<path d="M35.0979 13.754C35.0177 13.7541 34.9386 13.7363 34.8661 13.702C34.7937 13.6677 34.7297 13.6177 34.679 13.5556L32.4357 10.8108C32.39 10.7559 32.3557 10.6925 32.3346 10.6242C32.3135 10.556 32.3062 10.4843 32.313 10.4132C32.3199 10.3421 32.3407 10.273 32.3744 10.21C32.408 10.147 32.4539 10.0913 32.5092 10.0462C32.5645 10.001 32.6282 9.96722 32.6967 9.94682C32.7651 9.92642 32.8369 9.91978 32.908 9.9273C32.979 9.93481 33.0478 9.95633 33.1105 9.99061C33.1732 10.0249 33.2284 10.0712 33.273 10.127L35.0979 12.3616L36.9228 10.127C36.9669 10.0697 37.022 10.0218 37.085 9.98614C37.1479 9.95052 37.2174 9.92788 37.2892 9.91959C37.3611 9.91129 37.4338 9.91749 37.5032 9.93783C37.5726 9.95817 37.6373 9.99223 37.6933 10.038C37.7493 10.0838 37.7955 10.1403 37.8293 10.2043C37.863 10.2682 37.8836 10.3383 37.8898 10.4104C37.896 10.4824 37.8876 10.555 37.8653 10.6238C37.8429 10.6926 37.8069 10.7561 37.7595 10.8108L35.5163 13.5583C35.4653 13.6198 35.4014 13.6693 35.3291 13.7031C35.2567 13.7369 35.1778 13.7543 35.0979 13.754Z" fill="white" stroke="white" stroke-width="0.3"/>
</svg>
