<svg width="162" height="61" viewBox="0 0 162 61" fill="none" xmlns="http://www.w3.org/2000/svg">
<path d="M30.6009 58.1353C37.6213 58.1353 41.0263 54.5918 41.0263 50.4458C41.0263 41.3389 26.7396 44.4926 26.7396 39.9214C26.7396 38.3623 28.0384 37.0866 31.4082 37.0866C33.5846 37.0866 35.9364 37.7244 38.2181 39.0356L39.9732 34.677C37.6915 33.2241 34.5323 32.48 31.4433 32.48C24.4579 32.48 21.0881 35.9881 21.0881 40.2049C21.0881 49.4182 35.3748 46.229 35.3748 50.871C35.3748 52.3948 34.0058 53.5287 30.636 53.5287C27.6874 53.5287 24.5984 52.4656 22.5273 50.9419L20.5967 55.265C22.773 56.9659 26.7045 58.1353 30.6009 58.1353Z" fill="white"/>
<path d="M126.184 32.9052H115.548V57.7101H121.234V50.871H126.184C132.748 50.871 136.855 47.4338 136.855 41.9058C136.855 36.3425 132.748 32.9052 126.184 32.9052ZM125.868 46.1935H121.234V37.5827H125.868C129.343 37.5827 131.098 39.1773 131.098 41.9058C131.098 44.5989 129.343 46.1935 125.868 46.1935Z" fill="white"/>
<path d="M147.82 53.1035V47.3629H159.228V42.898H147.82V37.5118H160.737V32.9052H142.168V57.7101H161.194V53.1035H147.82Z" fill="white"/>
<path d="M58.9747 58.1353C63.2572 58.1353 66.8025 56.5761 69.1193 53.7059L65.4686 50.3041C63.8188 52.253 61.7478 53.2452 59.2906 53.2452C54.6922 53.2452 51.4277 49.9851 51.4277 45.3076C51.4277 40.6302 54.6922 37.3701 59.2906 37.3701C61.7478 37.3701 63.8188 38.3623 65.4686 40.2758L69.1193 36.874C66.8025 34.0391 63.2572 32.48 59.0098 32.48C51.3575 32.48 45.6709 37.8307 45.6709 45.3076C45.6709 52.7845 51.3575 58.1353 58.9747 58.1353Z" fill="#51CA89"/>
<path d="M85.5986 58.1353C93.3211 58.1353 99.0428 52.7137 99.0428 45.3076C99.0428 37.9016 93.3211 32.48 85.5986 32.48C77.841 32.48 72.1544 37.9371 72.1544 45.3076C72.1544 52.6782 77.841 58.1353 85.5986 58.1353ZM85.5986 53.2452C81.2108 53.2452 77.9112 50.0206 77.9112 45.3076C77.9112 40.5947 81.2108 37.3701 85.5986 37.3701C89.9864 37.3701 93.286 40.5947 93.286 45.3076C93.286 50.0206 89.9864 53.2452 85.5986 53.2452Z" fill="#51CA89"/>
<path d="M107.298 57.7354L109.204 56.0902C110.833 54.6474 111.21 53.7869 111.21 52.7744C111.21 50.8255 109.454 49.5093 106.721 49.5093C104.314 49.5093 102.735 50.4458 101.983 51.7873L104.415 53.1035C104.816 52.4454 105.518 52.0657 106.421 52.0657C107.424 52.0657 107.85 52.496 107.85 53.0275C107.85 53.4325 107.649 53.8628 106.772 54.6221L102.609 58.2416V60.2412H111.561V57.7354H107.298Z" fill="#51CA89"/>
<path d="M0 24.9003H5.68074V0.656812H0V24.9003Z" fill="white"/>
<path d="M40.4258 24.9003L40.3556 0.656812H35.6918L26.6447 15.7224L17.4574 0.656812H12.7585V24.9003H18.0886V10.6659L25.2771 22.3374H27.837L35.0606 10.3542L35.0957 24.9003H40.4258Z" fill="white"/>
<path d="M58.127 0.656812H47.5019V24.9003H53.1826V18.216H58.127C64.6843 18.216 68.7871 14.8565 68.7871 9.45372C68.7871 4.01626 64.6843 0.656812 58.127 0.656812ZM57.8114 13.6444H53.1826V5.22843H57.8114C61.2829 5.22843 63.0362 6.78694 63.0362 9.45372C63.0362 12.0859 61.2829 13.6444 57.8114 13.6444Z" fill="white"/>
<path d="M91.202 24.9003H97.1632L86.1875 0.656812H80.5769L69.6362 24.9003H75.4572L77.6313 19.7052H89.0279L91.202 24.9003ZM79.4548 15.4453L83.3471 6.16354L87.2395 15.4453H79.4548Z" fill="white"/>
<path d="M112.367 25.3159C116.645 25.3159 120.187 23.792 122.501 20.9867L118.854 17.6619C117.206 19.5667 115.137 20.5364 112.683 20.5364C108.089 20.5364 104.828 17.3502 104.828 12.7785C104.828 8.20691 108.089 5.02063 112.683 5.02063C115.137 5.02063 117.206 5.99037 118.854 7.86058L122.501 4.53576C120.187 1.76508 116.645 0.241211 112.402 0.241211C104.758 0.241211 99.0769 5.47087 99.0769 12.7785C99.0769 20.0862 104.758 25.3159 112.367 25.3159Z" fill="white"/>
<path d="M132.435 24.9003H138.115V5.22843H145.97V0.656812H124.58V5.22843H132.435V24.9003Z" fill="white"/>
</svg>
