<svg width="129" height="48" viewBox="0 0 129 48" fill="none" xmlns="http://www.w3.org/2000/svg">
<path d="M24.4809 46.3153C30.0973 46.3153 32.8212 43.4804 32.8212 40.1637C32.8212 32.8781 21.3919 35.4011 21.3919 31.7442C21.3919 30.4969 22.4309 29.4763 25.1268 29.4763C26.8678 29.4763 28.7493 29.9866 30.5746 31.0355L31.9787 27.5486C30.1534 26.3863 27.6261 25.791 25.1548 25.791C19.5665 25.791 16.8707 28.5975 16.8707 31.971C16.8707 39.3416 28.3 36.7902 28.3 40.5038C28.3 41.7228 27.2048 42.63 24.509 42.63C22.1501 42.63 19.6789 41.7795 18.022 40.5605L16.4775 44.019C18.2186 45.3798 21.3638 46.3153 24.4809 46.3153Z" fill="#0C0C0D"/>
<path d="M100.947 26.1312H92.4383V45.9751H96.9875V40.5038H100.947C106.198 40.5038 109.484 37.754 109.484 33.3317C109.484 28.881 106.198 26.1312 100.947 26.1312ZM100.694 36.7619H96.9875V29.8732H100.694C103.474 29.8732 104.879 31.1489 104.879 33.3317C104.879 35.4862 103.474 36.7619 100.694 36.7619Z" fill="#0C0C0D"/>
<path d="M118.256 42.2898V37.6973H127.383V34.1255H118.256V29.8165H128.59V26.1312H113.735V45.9751H128.955V42.2898H118.256Z" fill="#0C0C0D"/>
<path d="M47.1801 46.3153C50.6061 46.3153 53.4424 45.0679 55.2958 42.7717L52.3753 40.0503C51.0554 41.6094 49.3986 42.4032 47.4329 42.4032C43.7542 42.4032 41.1425 39.7951 41.1425 36.0531C41.1425 32.3112 43.7542 29.7031 47.4329 29.7031C49.3986 29.7031 51.0554 30.4969 52.3753 32.0277L55.2958 29.3062C53.4424 27.0383 50.6061 25.791 47.2082 25.791C41.0864 25.791 36.5371 30.0716 36.5371 36.0531C36.5371 42.0347 41.0864 46.3153 47.1801 46.3153Z" fill="#0C0C0D"/>
<path d="M68.4793 46.3153C74.6573 46.3153 79.2346 41.978 79.2346 36.0531C79.2346 30.1283 74.6573 25.791 68.4793 25.791C62.2732 25.791 57.7239 30.1567 57.7239 36.0531C57.7239 41.9496 62.2732 46.3153 68.4793 46.3153ZM68.4793 42.4032C64.969 42.4032 62.3293 39.8235 62.3293 36.0531C62.3293 32.2828 64.969 29.7031 68.4793 29.7031C71.9895 29.7031 74.6292 32.2828 74.6292 36.0531C74.6292 39.8235 71.9895 42.4032 68.4793 42.4032Z" fill="#0C0C0D"/>
<path d="M85.8389 45.9953L87.3633 44.6792C88.6671 43.525 88.968 42.8365 88.968 42.0266C88.968 40.4674 87.5639 39.4145 85.3775 39.4145C83.4519 39.4145 82.1882 40.1637 81.5865 41.2368L83.5322 42.2898C83.8531 41.7633 84.4147 41.4596 85.1368 41.4596C85.9392 41.4596 86.2802 41.8038 86.2802 42.229C86.2802 42.553 86.1197 42.8973 85.4177 43.5047L82.088 46.4003V48H89.2488V45.9953H85.8389Z" fill="#0C0C0D"/>
<path d="M0 19.7272H4.54459V0.332481H0V19.7272Z" fill="#0C0C0D"/>
<path d="M32.3406 19.7272L32.2845 0.332481H28.5534L21.3158 12.3849L13.9659 0.332481H10.2068V19.7272H14.4708V8.33974L20.2217 17.6769H22.2696L28.0485 8.09038L28.0765 19.7272H32.3406Z" fill="#0C0C0D"/>
<path d="M46.5015 0.332481H38.0015V19.7272H42.5461V14.3798H46.5015C51.7474 14.3798 55.0296 11.6923 55.0296 7.37C55.0296 3.02004 51.7474 0.332481 46.5015 0.332481ZM46.2491 10.7225H42.5461V3.98978H46.2491C49.0263 3.98978 50.429 5.23658 50.429 7.37C50.429 9.47572 49.0263 10.7225 46.2491 10.7225Z" fill="#0C0C0D"/>
<path d="M72.9615 19.7272H77.7305L68.95 0.332481H64.4615L55.7089 19.7272H60.3657L62.105 15.5712H71.2222L72.9615 19.7272ZM63.5638 12.1633L66.6777 4.73786L69.7915 12.1633H63.5638Z" fill="#0C0C0D"/>
<path d="M89.8936 20.0597C93.316 20.0597 96.1494 18.8406 98.0009 16.5964L95.0834 13.9365C93.7649 15.4604 92.1098 16.2362 90.1461 16.2362C86.4711 16.2362 83.8622 13.6871 83.8622 10.0299C83.8622 6.37256 86.4711 3.82353 90.1461 3.82353C92.1098 3.82353 93.7649 4.59932 95.0834 6.09549L98.0009 3.43564C96.1494 1.2191 93.316 0 89.9216 0C83.8061 0 79.2615 4.18372 79.2615 10.0299C79.2615 15.876 83.8061 20.0597 89.8936 20.0597Z" fill="#0C0C0D"/>
<path d="M105.948 19.7272H110.492V3.98978H116.776V0.332481H99.6638V3.98978H105.948V19.7272Z" fill="#0C0C0D"/>
</svg>
