<svg width="40" height="40" viewBox="0 0 40 40" fill="none" xmlns="http://www.w3.org/2000/svg">
<g clip-path="url(#clip0)">
<path d="M38.1772 24.9745L39.3216 23.8303C40.0418 23.1098 40.0418 21.9376 39.3216 21.2171C38.9725 20.8683 38.5086 20.676 38.0148 20.676C37.6444 20.676 37.2904 20.7844 36.9895 20.9861L36.7484 20.1768L37.9871 18.9378C38.7076 18.2172 38.7076 17.0451 37.9871 16.3248C37.3239 15.6614 36.2784 15.6104 35.5542 16.1686L34.0863 11.2406C34.6726 10.676 35.2341 10.1267 35.7633 9.59754C37.2882 8.07227 38.5281 6.45819 39.2548 5.05194C40.4825 2.67523 39.9686 1.40478 39.3213 0.757498C38.6743 0.11022 37.4039 -0.403392 35.0269 0.824332C33.6209 1.55065 32.0065 2.79058 30.4816 4.31585C29.9524 4.84503 29.4028 5.40625 28.8385 5.99249L23.9102 4.52459C24.4684 3.80072 24.4174 2.75518 23.7543 2.09173C23.0337 1.37151 21.8616 1.37121 21.1413 2.09173L19.9023 3.33074L19.0927 3.08965C19.2944 2.78845 19.4028 2.43444 19.4028 2.06396C19.4028 1.57049 19.2105 1.10631 18.8617 0.757498C18.1415 0.0369774 16.969 0.0369774 16.2488 0.757498L15.1047 1.9016L9.27304 0.164541C9.06522 0.102896 8.84061 0.159658 8.68772 0.312857L7.18656 1.81402C6.93448 2.06579 6.96774 2.49639 7.25522 2.70666L21.969 13.4766C18.6514 17.2172 15.4556 20.9623 13.1994 23.6381L8.87143 21.9733C8.65384 21.8897 8.40757 21.9419 8.24277 22.1067L6.46359 23.8859C6.23349 24.1163 6.23349 24.4895 6.46359 24.7196L15.3592 33.6152C15.5862 33.8426 15.9659 33.8426 16.1932 33.6152L17.9721 31.8363C18.1369 31.6715 18.1894 31.425 18.1055 31.2074L16.441 26.8797C19.1168 24.6235 22.8616 21.4277 26.6025 18.1098L27.7713 19.7071C27.9788 19.9906 28.3997 20.0272 28.6542 19.7855C28.8663 19.5841 28.8956 19.2463 28.7231 19.0107L27.4875 17.3225C29.4437 15.5765 31.3754 13.8151 33.1281 12.1552L38.6838 30.8061L37.9175 31.5721L30.2817 21.1399C30.0894 20.8772 29.7205 20.8201 29.4577 21.0123C29.1946 21.2049 29.1376 21.5739 29.3301 21.8366L37.3724 32.8239C37.5827 33.1114 38.0133 33.1446 38.2651 32.8926L39.7663 31.3914C39.9194 31.2385 39.9762 31.0136 39.9146 30.8061L38.1772 24.9745ZM21.9754 2.92578C22.233 2.66821 22.663 2.66821 22.9205 2.92578C23.1811 3.1864 23.1811 3.61029 22.9205 3.87091L22.644 4.1474L21.1874 3.71343L21.9754 2.92578ZM17.0828 1.59154C17.3431 1.33092 17.7673 1.33092 18.0279 1.59154C18.2886 1.85217 18.2886 2.27606 18.0279 2.53668L17.8461 2.71826L16.3898 2.2846L17.0828 1.59154ZM8.50675 2.16131L9.27304 1.39532L27.9239 6.95074C26.264 8.70368 24.5026 10.6354 22.7563 12.5916L8.50675 2.16131ZM8.80582 23.2118L12.3962 24.5927C11.4956 25.6651 10.805 26.4948 10.3976 26.9859L7.71451 24.3028L8.80582 23.2118ZM11.2353 27.8236C13.291 25.3434 24.1568 12.3084 31.3156 5.14959C32.7359 3.729 34.2862 2.53454 35.5682 1.87231C36.5308 1.37487 37.8186 0.922599 38.4876 1.59154C39.1565 2.26049 38.7039 3.54833 38.2068 4.51086C37.5446 5.79291 36.3498 7.3429 34.9292 8.76349C27.771 15.9217 14.7357 26.7878 12.2555 28.8438L11.2353 27.8236ZM16.8674 31.2733L15.7763 32.3643L13.0932 29.6812C13.584 29.2741 14.414 28.5835 15.4864 27.6829L16.8674 31.2733ZM37.5424 22.0512C37.8031 21.7905 38.2269 21.7905 38.4876 22.0512C38.7482 22.3118 38.7482 22.7357 38.4876 22.9963L37.7945 23.6894L37.3605 22.2331L37.5424 22.0512ZM36.2082 17.1586C36.4685 16.898 36.8927 16.8983 37.1533 17.1586C37.4109 17.4162 37.4109 17.8461 37.1533 18.1037L36.3654 18.8917L35.9314 17.4351L36.2082 17.1586Z" fill="white"/>
<path d="M35.398 34.0393L30.366 39.0713C30.1515 39.2862 30.1371 39.6408 30.3346 39.8715C30.5552 40.129 30.9602 40.1452 31.2 39.9054L36.2321 34.8733C36.4625 34.6429 36.4625 34.2697 36.2321 34.0393C36.002 33.8092 35.6285 33.8092 35.398 34.0393Z" fill="white"/>
<path d="M33.714 32.3571C33.9445 32.127 33.9445 31.7535 33.714 31.5234C33.4839 31.293 33.1104 31.293 32.8803 31.5234L29.7351 34.6682C29.5206 34.8831 29.5063 35.2377 29.7037 35.4684C29.9244 35.726 30.3293 35.7421 30.5692 35.5023L33.714 32.3571Z" fill="white"/>
<path d="M31.8273 29.2124C32.0577 28.982 32.0577 28.6085 31.8273 28.3784C31.5969 28.148 31.2237 28.148 30.9933 28.3784L28.7917 30.5799C28.5772 30.7945 28.5629 31.1494 28.7606 31.3801C28.9809 31.6377 29.3859 31.6538 29.6258 31.414L31.8273 29.2124Z" fill="white"/>
<path d="M6.0389 4.16135C5.8085 3.93124 5.43496 3.93124 5.20486 4.16135L0.172806 9.19371C-0.057602 9.42381 -0.057602 9.79735 0.172806 10.0275C0.399857 10.2545 0.779496 10.2545 1.00685 10.0275L6.0389 4.99539C6.26901 4.76499 6.26901 4.39176 6.0389 4.16135Z" fill="white"/>
<path d="M8.55398 6.67769C8.32357 6.44728 7.95034 6.44728 7.72024 6.67769L4.57509 9.82283C4.36025 10.0374 4.34621 10.392 4.54366 10.6227C4.7643 10.8803 5.16897 10.8964 5.40883 10.6566L8.55398 7.51174C8.78439 7.28133 8.78439 6.90779 8.55398 6.67769Z" fill="white"/>
<path d="M8.66476 11.5998C8.89212 11.8268 9.27145 11.8268 9.49881 11.5998L11.7004 9.39822C11.9305 9.16782 11.9305 8.79459 11.7004 8.56418C11.4699 8.33408 11.0967 8.33408 10.8663 8.56418L8.66476 10.7657C8.43466 10.9961 8.43466 11.3694 8.66476 11.5998Z" fill="white"/>
</g>
<defs>
<clipPath id="clip0">
<rect width="40" height="40" fill="white"/>
</clipPath>
</defs>
</svg>
