<svg width="21" height="21" viewBox="0 0 21 21" fill="none" xmlns="http://www.w3.org/2000/svg">
<g clip-path="url(#clip0)">
<path d="M17.4968 6.73477C16.5262 2.86837 12.6051 0.520807 8.73866 1.49138C5.71712 2.24984 3.52315 4.8613 3.2971 7.96839C1.15168 8.32219 -0.300729 10.3482 0.0530738 12.4936C0.367588 14.4009 2.02025 15.7977 3.95327 15.79H6.57799V14.4777H3.95327C2.50369 14.4777 1.32856 13.3025 1.32856 11.853C1.32856 10.4034 2.50369 9.22825 3.95327 9.22825C4.31569 9.22825 4.60945 8.93449 4.60945 8.57207C4.60617 5.3105 7.24757 2.6638 10.5091 2.66056C13.3325 2.65773 15.763 4.65375 16.3091 7.42376C16.363 7.70034 16.5875 7.91163 16.8669 7.9487C18.6608 8.20416 19.9079 9.86548 19.6525 11.6593C19.4231 13.2702 18.0477 14.4696 16.4207 14.4777H14.4521V15.79H16.4207C18.9574 15.7824 21.0077 13.7197 21 11.1829C20.9936 9.07118 19.5482 7.23593 17.4968 6.73477Z" fill="white"/>
<path d="M11.1719 17.4895V11.1968H9.8595V17.4895L8.35685 15.9869L7.43164 16.9121L10.0564 19.5368C10.3123 19.7912 10.7256 19.7912 10.9816 19.5368L13.6063 16.9121L12.6811 15.9869L11.1719 17.4895Z" fill="white"/>
</g>
<defs>
<clipPath id="clip0">
<rect width="21" height="21" fill="white"/>
</clipPath>
</defs>
</svg>
