<svg width="42" height="42" viewBox="0 0 42 42" fill="none" xmlns="http://www.w3.org/2000/svg">
<g clip-path="url(#clip0)">
<path fill-rule="evenodd" clip-rule="evenodd" d="M7.38281 3.69141C7.38281 5.72685 5.72685 7.38281 3.69141 7.38281C1.65596 7.38281 0 5.72685 0 3.69141C0 1.65596 1.65596 0 3.69141 0C5.72685 0 7.38281 1.65596 7.38281 3.69141ZM6.15234 3.69141C6.15234 2.33445 5.04837 1.23047 3.69141 1.23047C2.33445 1.23047 1.23047 2.33445 1.23047 3.69141C1.23047 5.04837 2.33445 6.15234 3.69141 6.15234C5.04837 6.15234 6.15234 5.04837 6.15234 3.69141ZM15.8579 28.0615C17.2314 26.688 19.0576 25.9316 21 25.9316C22.9424 25.9316 24.7686 26.688 26.1422 28.0614C27.5157 29.435 28.2722 31.2611 28.2722 33.2036C28.2722 35.146 27.5157 36.9722 26.1422 38.3458C24.7245 39.7634 22.8623 40.4723 21.0001 40.4723C19.1379 40.4723 17.2756 39.7634 15.858 38.3458C14.4844 36.9721 13.728 35.146 13.728 33.2036C13.728 32.3496 13.8744 31.5183 14.155 30.7379H7.22941C5.29881 30.7379 3.48346 29.9857 2.1178 28.6201C0.752144 27.2555 0 25.4401 0 23.5085C0 21.932 0.498668 20.4337 1.44211 19.1755C2.35405 17.9594 3.65219 17.0444 5.09759 16.5991C5.18864 16.5711 5.25 16.4824 5.25 16.3784C5.25 14.0211 6.0868 11.741 7.60627 9.95121C7.82619 9.69224 8.21453 9.66057 8.47342 9.88042C8.73239 10.1003 8.76414 10.4886 8.54421 10.7477C7.21342 12.3152 6.48047 14.3125 6.48047 16.3718C6.48047 17.0256 6.07039 17.5868 5.46 17.7751C4.26103 18.1445 3.18371 18.9039 2.42657 19.9137C1.64407 20.9573 1.23047 22.2004 1.23047 23.5085C1.23047 25.1112 1.85448 26.6175 2.98774 27.7499C4.12109 28.8834 5.62751 29.5075 7.22941 29.5075H14.7349C15.0433 28.9866 15.4187 28.5007 15.8579 28.0615ZM30.6344 25.9458C30.9707 25.9458 31.2452 26.2162 31.2495 26.5533C31.2537 26.8931 30.9817 27.1719 30.642 27.1763C29.9684 27.1847 29.475 27.1884 29.1113 27.1884C28.1697 27.1884 28.097 27.1642 28.0165 27.1373L28.0165 27.1373C27.815 27.0702 27.6644 26.9174 27.603 26.718C27.4995 26.3817 27.6525 26.1814 27.9572 25.7824C28.1984 25.4668 28.6473 24.879 29.3996 23.8041C29.6068 23.5081 29.7459 23.2352 29.8033 23.0126C29.8921 22.6677 29.58 22.3391 29.2159 22.3391C28.9291 22.3391 28.6808 22.5427 28.6257 22.8233C28.5602 23.1567 28.237 23.3737 27.9034 23.3084C27.57 23.2429 27.3528 22.9195 27.4183 22.5862C27.5865 21.7299 28.3425 21.1085 29.2159 21.1085C30.3186 21.1085 31.2688 22.1424 31.0086 23.2636C30.9192 23.6482 30.7171 24.0674 30.4077 24.5095C29.964 25.1434 29.6235 25.6116 29.3675 25.9562C29.7565 25.9549 30.2033 25.9512 30.6265 25.9459L30.6344 25.9458ZM34.6172 38.3086C34.6172 36.2732 36.2732 34.6172 38.3086 34.6172C40.344 34.6172 42 36.2732 42 38.3086C42 40.344 40.344 42 38.3086 42C36.2732 42 34.6172 40.344 34.6172 38.3086ZM35.8477 38.3086C35.8477 39.6656 36.9516 40.7695 38.3086 40.7695C39.6656 40.7695 40.7695 39.6656 40.7695 38.3086C40.7695 36.9516 39.6656 35.8477 38.3086 35.8477C36.9516 35.8477 35.8477 36.9516 35.8477 38.3086ZM39.8822 18.3969C41.2479 19.7616 42 21.5769 42 23.5085C42 27.4948 38.7569 30.7379 34.7706 30.7379H30.3712C30.0314 30.7379 29.7559 30.4626 29.7559 30.1227C29.7559 29.7828 30.0314 29.5075 30.3712 29.5075H34.7706C38.0784 29.5075 40.7695 26.8163 40.7695 23.5085C40.7695 21.9058 40.1454 20.3995 39.0123 19.2671C37.8788 18.1337 36.3725 17.5096 34.7706 17.5096C34.0826 17.5096 33.3979 17.1473 33.1853 16.5218C32.1654 13.5215 29.3508 11.5064 26.1811 11.5064C25.3971 11.5064 24.6253 11.6284 23.887 11.8691C23.2852 12.0655 22.6308 11.8478 22.2584 11.3272C20.627 9.04099 17.9794 7.67649 15.1758 7.67649C13.5369 7.67649 11.9407 8.13471 10.5596 9.00162C10.2719 9.18209 9.89207 9.09538 9.71152 8.80761C9.53088 8.51985 9.61775 8.14004 9.90552 7.95941C11.4827 6.96938 13.3052 6.44602 15.1758 6.44602C18.3762 6.44602 21.3982 8.0033 23.2595 10.6119C23.3175 10.6929 23.4166 10.7286 23.5054 10.6993C24.3673 10.4184 25.2674 10.2761 26.1811 10.2761C29.878 10.2761 33.1607 12.6264 34.3498 16.1246C34.404 16.2838 34.5805 16.2815 34.7257 16.2796C34.741 16.2794 34.7561 16.2792 34.7706 16.2792C36.7012 16.2792 38.5165 17.0313 39.8822 18.3969ZM16.3568 18.1037C15.893 17.7904 15.3504 17.6247 14.7879 17.6247C13.2402 17.6247 11.9808 18.884 11.9808 20.4318C11.9808 21.9795 13.24 23.2387 14.7878 23.2387C15.4854 23.2387 16.0564 22.9884 16.4723 22.4925C16.6907 22.2321 17.0787 22.1981 17.339 22.4164C17.5994 22.6347 17.6334 23.0227 17.4151 23.2831C16.768 24.0547 15.8447 24.4691 14.7878 24.4691C12.5615 24.4691 10.7504 22.6579 10.7504 20.4317C10.7504 18.2054 12.5615 16.3943 14.7878 16.3943C15.5968 16.3943 16.3775 16.6328 17.0455 17.0841C17.3271 17.2743 17.4012 17.6567 17.211 17.9383C17.0207 18.2199 16.6384 18.2938 16.3568 18.1037ZM22.4301 16.3942C24.6564 16.3942 26.4676 18.2054 26.4676 20.4316C26.4676 22.6579 24.6564 24.469 22.4301 24.469C20.2039 24.469 18.3927 22.6579 18.3927 20.4316C18.3927 18.2054 20.2039 16.3942 22.4301 16.3942ZM22.4302 17.6247C20.8825 17.6247 19.6233 18.8838 19.6233 20.4316C19.6233 21.9794 20.8825 23.2386 22.4302 23.2386C23.978 23.2386 25.2372 21.9794 25.2372 20.4316C25.2372 18.8838 23.978 17.6247 22.4302 17.6247ZM21.0028 39.3977C24.4701 39.3977 27.2809 36.6417 27.2809 33.242C27.2809 29.8423 24.4701 27.0863 21.0028 27.0863C17.5354 27.0863 14.7246 29.8423 14.7246 33.242C14.7246 36.6417 17.5354 39.3977 21.0028 39.3977Z" fill="#0C0C0D"/>
<path d="M20.9946 29.1704C20.5416 29.1704 20.188 29.4135 20.188 29.8445C20.188 31.1593 20.3427 33.0488 20.3427 34.3637C20.3427 34.7062 20.6411 34.8498 20.9946 34.8498C21.2598 34.8498 21.6355 34.7062 21.6355 34.3637C21.6355 33.0488 21.7902 31.1594 21.7902 29.8445C21.7902 29.4135 21.4255 29.1704 20.9946 29.1704Z" fill="#0C0C0D"/>
<path d="M21.0056 35.6118C20.5195 35.6118 20.1548 35.9985 20.1548 36.4627C20.1548 36.9157 20.5194 37.3135 21.0056 37.3135C21.4587 37.3135 21.8454 36.9157 21.8454 36.4627C21.8454 35.9985 21.4586 35.6118 21.0056 35.6118Z" fill="#0C0C0D"/>
</g>
<defs>
<clipPath id="clip0">
<rect width="42" height="42" fill="white"/>
</clipPath>
</defs>
</svg>
