<svg width="551" height="401" viewBox="0 0 551 401" fill="none" xmlns="http://www.w3.org/2000/svg">
<circle cx="301.5" cy="120.5" r="32.5" stroke="#3F3D56" stroke-width="2"/>
<path opacity="0.1" d="M114.812 400.113C51.4032 400.113 -9.15527e-05 391.887 -9.15527e-05 381.739C-9.15527e-05 371.592 51.4032 363.366 114.812 363.366C178.222 363.366 229.625 371.592 229.625 381.739C229.625 391.887 178.222 400.113 114.812 400.113Z" fill="#0C0C0D"/>
<path opacity="0.1" d="M476.798 400C435.817 400 402.596 394.683 402.596 388.125C402.596 381.567 435.817 376.251 476.798 376.251C517.779 376.251 551 381.567 551 388.125C551 394.683 517.779 400 476.798 400Z" fill="#0C0C0D"/>
<path d="M258.488 140L258.251 140.975L263.055 142.141L261.542 146.849L262.497 147.155L264.34 141.421L258.488 140Z" fill="#3F3D56"/>
<path d="M516.67 374.141C516.67 385.408 523.366 389.342 531.627 389.342C531.819 389.342 532.01 389.34 532.201 389.335C532.583 389.327 532.962 389.309 533.337 389.283C540.793 388.756 546.585 384.619 546.585 374.141C546.585 363.297 532.73 349.613 531.689 348.601L531.687 348.599C531.647 348.56 531.627 348.541 531.627 348.541C531.627 348.541 516.67 362.874 516.67 374.141Z" fill="#51CA89"/>
<path d="M532.173 387.618L526.703 379.972L532.187 388.458L532.201 389.335C532.584 389.327 532.963 389.309 533.338 389.283L532.748 378.011L532.753 377.923L532.743 377.907L532.687 376.842L538.185 368.336L532.67 376.044L532.657 376.27L532.212 367.753L536.919 358.963L532.154 366.258L531.69 348.601L531.688 348.541V348.599L531.766 362.523L527.08 357.003L531.785 363.722L531.909 371.348L527.534 364.03L531.927 372.47L531.996 376.709L525.644 366.523L532.02 378.189L532.173 387.618Z" fill="#3F3D56"/>
<path d="M445.325 371.222L442.126 368.844C442.126 368.844 440.008 380.677 442.371 382.45C444.735 384.223 453.597 387.177 453.597 390.723C453.597 394.269 473.686 398.996 474.277 393.678C474.867 388.359 472.504 385.404 472.504 385.404C472.504 385.404 463.051 375.949 461.869 374.176C460.687 372.404 457.733 368.858 457.733 368.858L445.325 371.222Z" fill="#2F2E41"/>
<path d="M492.593 224.077C492.593 224.077 492.504 224.597 492.351 225.548C492.209 226.393 492.014 227.587 491.777 229.058C489.296 244.204 482.058 288.791 482.549 290.262C483.139 292.035 487.275 298.535 482.549 300.308C482.094 300.48 481.603 301.035 481.077 301.91C480.062 303.794 479.226 305.768 478.578 307.807C475.76 315.986 472.746 329.075 471.003 338.141C470.241 342.124 469.721 345.326 469.568 347.005C469.514 347.393 469.508 347.786 469.55 348.175C470.141 350.539 466.005 358.812 464.233 361.176C462.46 363.539 459.506 365.903 460.097 368.267C460.687 370.631 445.326 377.131 443.553 372.994C441.781 368.858 441.781 366.494 441.19 365.312C440.599 364.13 440.008 355.857 442.962 354.675C445.916 353.493 444.144 332.81 447.098 328.674C448.085 327.297 449.591 322.634 451.169 317.026C451.789 314.828 452.416 312.488 453.03 310.142C455.524 300.527 457.733 290.853 457.733 290.853L457.142 221.713L489.639 217.576L490.472 219.414L492.132 223.06L492.593 224.077Z" fill="#2F2E41"/>
<path d="M494.365 337.538C494.365 337.538 499.092 332.811 501.455 337.538C503.818 342.266 506.182 360.585 510.318 364.722C514.453 368.858 519.771 389.541 513.863 390.723C507.954 391.905 501.455 388.95 500.864 385.405C500.273 381.859 487.866 363.54 487.866 361.767C487.866 359.994 496.138 353.494 496.138 353.494L494.365 337.538Z" fill="#2F2E41"/>
<path d="M421.693 191.575C421.693 191.575 429.373 260.715 431.146 267.216C432.918 273.716 442.372 298.536 445.326 302.672C448.28 306.809 467.187 340.493 469.55 342.265C471.914 344.038 476.641 348.766 476.641 348.766C476.641 348.766 485.503 357.63 486.685 359.403C487.866 361.176 497.911 355.857 498.502 352.311C499.092 348.766 497.911 342.856 497.32 340.493C496.729 338.129 498.502 334.583 496.729 332.81C494.957 331.037 486.094 322.173 486.094 318.037C486.094 313.9 470.732 289.671 464.824 284.353C458.915 279.034 460.097 270.17 460.097 270.17V234.123L492.593 224.077C492.593 224.077 490.821 195.711 486.685 195.711C482.549 195.711 428.192 186.256 421.693 191.575Z" fill="#2F2E41"/>
<path d="M469.55 92.8871C458.782 92.8871 450.052 84.1561 450.052 73.3859C450.052 62.6157 458.782 53.8848 469.55 53.8848C480.318 53.8848 489.048 62.6157 489.048 73.3859C489.048 84.1561 480.318 92.8871 469.55 92.8871Z" fill="#9F616A"/>
<path d="M463.051 88.7504C463.051 88.7504 460.687 97.6145 457.733 99.9783C454.779 102.342 465.414 112.388 465.414 112.388L485.503 113.57L489.048 102.342C489.048 102.342 482.548 89.3413 484.321 81.0681C486.093 72.7949 463.051 88.7504 463.051 88.7504Z" fill="#9F616A"/>
<path d="M454.779 98.7964C454.779 98.7964 460.097 99.3873 461.278 101.16C462.46 102.933 470.732 108.251 477.231 107.07C483.73 105.888 487.866 104.115 489.048 104.706C490.229 105.297 492.593 117.707 492.593 117.707L486.094 136.617L487.275 188.62L489.048 202.803C489.048 202.803 492.593 198.075 478.413 201.03C464.233 203.984 445.916 198.666 440.008 198.075C434.1 197.484 424.055 195.711 423.465 192.166C422.874 188.62 425.237 175.619 425.237 175.619L434.691 136.026L440.599 114.752L454.779 98.7964Z" fill="#E8F4EF"/>
<path d="M460.367 96.1293C460.367 96.1293 455.369 93.4779 453.597 95.8417C451.824 98.2055 429.372 101.751 429.372 103.524C429.372 105.297 424.645 153.163 425.827 157.3C427.009 161.437 423.464 166.164 423.464 166.164L419.328 183.892C419.328 183.892 408.102 217.576 412.829 218.758C417.555 219.94 421.691 218.758 423.464 218.758C425.236 218.758 424.645 196.302 429.372 190.393C434.099 184.483 440.598 169.71 441.78 166.755C442.961 163.8 457.732 123.025 457.142 118.298C456.551 113.57 460.367 96.1293 460.367 96.1293Z" fill="#51CA89"/>
<path d="M484.912 98.7964C484.912 98.7964 489.639 98.7964 490.23 99.9783C490.82 101.16 496.729 108.842 499.092 110.615C501.456 112.388 509.727 120.07 509.727 121.843C509.727 123.616 492.593 136.617 492.593 136.617C492.593 136.617 485.503 171.482 489.048 183.301C492.593 195.12 497.911 223.486 495.547 225.258C493.184 227.031 487.866 227.622 487.866 225.258C487.866 222.895 484.321 197.484 481.367 192.166C478.413 186.847 469.55 153.163 473.095 143.708C476.64 134.253 484.912 98.7964 484.912 98.7964Z" fill="#51CA89"/>
<path d="M406.921 157.3C406.921 157.3 406.33 175.619 412.829 185.074C419.329 194.529 423.465 205.166 423.465 205.166C423.465 205.166 434.1 202.212 435.872 198.666C437.645 195.12 448.871 198.075 448.871 196.893C448.871 195.711 435.281 189.802 434.1 188.62C432.918 187.438 428.782 187.438 426.419 185.074C424.055 182.71 423.465 177.392 423.465 177.392L421.101 162.027L406.921 157.3Z" fill="#9F616A"/>
<path d="M456.121 61.3621C454.621 61.2258 453.074 61.0759 451.748 60.3608C448.778 58.7586 447.99 54.196 450.251 51.6904C450.875 51.0528 451.572 50.492 452.328 50.0198L456.819 46.9623C458.806 45.6101 460.839 44.2357 463.156 43.5982C465.251 43.0217 467.464 43.0809 469.633 43.2158C473.844 43.4775 478.081 44.0182 482.042 45.4723C486.002 46.9264 489.696 49.359 492.095 52.8303C495.898 58.3334 495.95 65.7552 493.856 72.1082C491.761 78.4612 487.783 83.9934 483.863 89.4134L481.829 79.4872C481.648 78.6031 481.413 77.6341 480.678 77.1109C478.851 75.8104 476.616 78.4805 474.373 78.4632C472.932 78.4521 471.723 77.2667 471.176 75.9329C470.63 74.5992 470.594 73.1222 470.468 71.6864C470.2 68.6455 469.138 64.4143 466.259 62.7372C463.575 61.1745 459.136 61.6361 456.121 61.3621Z" fill="#2F2E41"/>
<path opacity="0.1" d="M457.215 224.554C457.215 224.554 459.211 282.285 460.393 284.057C461.574 285.83 460.393 224.372 460.393 224.372L457.215 224.554Z" fill="black"/>
<path d="M434.1 103.524H429.373C429.373 103.524 409.285 130.707 411.648 132.48C414.011 134.253 411.648 138.981 411.648 138.981L406.921 147.845C406.921 147.845 401.013 153.163 402.785 154.345C404.558 155.527 406.921 160.255 406.921 160.255C406.921 160.255 418.738 158.482 422.283 165.573L429.946 155.897L434.1 103.524Z" fill="#51CA89"/>
<path d="M432.429 112.267L448.648 118.966L436.167 149.197L419.947 142.498L432.429 112.267Z" fill="#2F2E41"/>
<path d="M434.33 129.998C432.539 129.258 431.637 127.323 432.317 125.677C432.996 124.031 435 123.297 436.791 124.037C438.583 124.777 439.484 126.711 438.805 128.357C438.125 130.003 436.122 130.738 434.33 129.998Z" fill="#51CA89"/>
<path d="M445.916 150.799C445.916 150.799 488.456 186.256 495.546 175.028C502.636 163.8 487.865 154.345 487.865 154.345C487.865 154.345 474.867 154.936 460.096 145.481L445.325 138.98C445.325 138.98 431.84 119.725 427.245 127.057C422.65 134.39 435.089 147.151 445.916 150.799Z" fill="#9F616A"/>
<path d="M503.228 119.479L509.727 121.843V139.572L512.09 143.117C512.09 143.117 511.499 150.209 509.727 151.981C507.954 153.754 504.409 153.163 505.591 157.3C506.301 159.997 506.501 162.803 506.182 165.573C506.182 165.573 495.547 179.165 494.956 177.392C494.365 175.619 486.093 153.754 484.911 153.754C483.73 153.754 496.728 119.479 496.728 119.479H503.228Z" fill="#51CA89"/>
<path d="M425.533 209.008C425.533 209.008 419.423 203.098 422.478 202.803C425.533 202.507 436.168 196.598 437.94 199.553C439.713 202.507 425.533 209.008 425.533 209.008Z" fill="#2F2E41"/>
<path d="M342.525 111.037C342.525 111.037 378.562 101.84 406.459 114.173" stroke="#3F3D56" stroke-width="2" stroke-miterlimit="10"/>
<path d="M404.988 109.124L404.072 109.534L406.094 114.046L401.446 115.733L401.789 116.677L407.45 114.62L404.988 109.124Z" fill="#3F3D56"/>
<path d="M308.075 109.009L309.339 103.938L306.223 103.174L304.985 108.107C304.171 107.905 303.333 107.725 302.499 107.526L303.744 102.559L300.643 101.795L299.371 106.858C298.694 106.705 298.035 106.551 297.392 106.395L293.115 105.333L292.288 108.627C292.288 108.627 294.54 109.139 294.54 109.185C295.797 109.498 296.024 110.331 295.985 110.977L294.537 116.75C294.647 116.776 294.754 116.811 294.859 116.853L294.533 116.773L292.504 124.858C292.46 124.999 292.388 125.129 292.293 125.243C292.198 125.356 292.082 125.449 291.95 125.517C291.819 125.586 291.675 125.627 291.527 125.64C291.38 125.653 291.231 125.636 291.089 125.592H291.082C291.113 125.637 288.826 125.034 288.826 125.034L287.289 128.564L291.324 129.565C292.093 129.753 292.811 129.947 293.534 130.131L292.25 135.255L295.347 136.019L296.619 130.948C297.442 131.17 298.268 131.38 299.09 131.587L297.822 136.634L300.923 137.398L302.207 132.282C307.495 133.275 311.476 132.874 313.147 128.121C314.496 124.3 313.082 122.084 310.296 120.643C312.321 120.177 313.851 118.855 314.258 116.116L314.293 116.1C314.854 112.36 311.987 110.35 308.075 109.009ZM307.206 125.981C306.25 129.802 299.763 127.739 297.661 127.223L299.363 120.433C301.457 120.957 308.202 121.988 307.199 125.981H307.206ZM308.167 116.047C307.291 119.532 301.896 117.759 300.143 117.327L301.68 111.171C303.429 111.603 309.07 112.413 308.144 116.047H308.167Z" fill="#51CA89"/>
<path d="M300.367 137.662L296.529 136.711L297.794 131.646C297.221 131.501 296.644 131.352 296.072 131.198L294.805 136.278L290.972 135.327L292.253 130.183C292.103 130.144 291.953 130.104 291.803 130.065C291.353 129.947 290.897 129.828 290.422 129.711L285.957 128.597L287.801 124.337L288.12 124.422C288.561 124.539 289.027 124.661 289.416 124.76L289.362 124.679L290.381 124.985C290.475 125.016 290.574 125.028 290.672 125.02C290.77 125.012 290.866 124.985 290.954 124.94C291.041 124.895 291.119 124.833 291.183 124.758C291.246 124.683 291.294 124.595 291.324 124.501L293.254 116.76L293.253 116.76L294.781 110.632C294.811 109.913 294.434 109.465 293.628 109.263L292.767 109.047L292.789 109.033C292.382 108.935 291.871 108.815 291.39 108.705L291.008 108.618L292.02 104.562L296.658 105.721C297.178 105.848 297.712 105.974 298.258 106.099L299.528 101.013L303.365 101.964L302.125 106.943C302.343 106.994 302.561 107.045 302.779 107.095C303.141 107.178 303.502 107.261 303.859 107.347L305.093 102.397L308.946 103.347L307.676 108.468C310.719 109.56 314.452 111.521 313.801 115.886L313.77 116.095L313.733 116.111C313.353 118.321 312.231 119.793 310.393 120.497C313.077 122.213 313.812 124.682 312.641 128.017C310.793 133.305 306.094 133.304 301.652 132.507L300.367 137.662ZM297.459 136.151L299.808 136.733L301.083 131.621L301.439 131.688C307.506 132.835 310.542 131.697 311.918 127.763C313.062 124.502 312.217 122.267 309.259 120.728L308.337 120.248L309.349 120.014C311.463 119.525 312.66 118.143 313.008 115.789L313.039 115.58L313.07 115.566C313.414 112.624 311.56 110.617 307.095 109.077L306.764 108.963L308.017 103.908L305.652 103.325L304.418 108.275L304.046 108.182C303.572 108.063 303.091 107.953 302.607 107.842C302.262 107.763 301.915 107.683 301.569 107.6L301.193 107.51L302.436 102.523L300.087 101.941L298.82 107.013L298.454 106.93C297.777 106.776 297.116 106.622 296.474 106.465L292.578 105.491L291.941 108.045C292.578 108.171 293.207 108.33 293.827 108.522C294.984 108.817 295.61 109.614 295.545 110.712L295.534 110.782L294.176 116.227L294.18 116.228L294.089 116.574L294.071 116.57L294.064 116.592L294.085 116.597L292.061 124.709C292.004 124.901 291.91 125.08 291.783 125.235C291.656 125.39 291.5 125.518 291.323 125.612C291.147 125.706 290.953 125.764 290.754 125.783C290.554 125.801 290.353 125.78 290.162 125.72L290.163 125.716C289.87 125.677 289.327 125.535 288.242 125.248L287.02 128.072L290.606 128.967C291.083 129.084 291.543 129.205 291.997 129.323C292.27 129.395 292.54 129.466 292.812 129.535L293.181 129.629L291.901 134.768L294.247 135.35L295.517 130.254L295.895 130.357C296.709 130.577 297.535 130.792 298.351 130.995L298.724 131.087L297.459 136.151ZM302.54 128.395C300.685 128.395 298.651 127.86 297.343 127.517C297.116 127.457 296.914 127.404 296.741 127.361L296.368 127.269L298.252 119.711L298.625 119.805C298.835 119.858 299.093 119.916 299.386 119.982C301.519 120.463 305.089 121.267 306.369 123.346C306.744 123.946 306.898 124.658 306.806 125.36H306.837L306.726 125.836C306.635 126.239 306.463 126.62 306.219 126.954C305.975 127.288 305.665 127.568 305.308 127.777C304.544 128.23 303.569 128.395 302.54 128.395ZM297.297 126.712C297.374 126.732 297.454 126.753 297.537 126.775C299.327 127.246 303.05 128.224 304.917 127.118C305.4 126.839 305.759 126.388 305.923 125.856L305.975 125.65C306.067 125.333 306.092 124.999 306.047 124.672C306.003 124.344 305.89 124.029 305.716 123.748C304.605 121.944 301.101 121.154 299.218 120.73C299.074 120.698 298.938 120.667 298.811 120.638L297.297 126.712ZM303.934 118.28C302.41 118.28 300.783 117.846 299.73 117.566C299.536 117.515 299.364 117.469 299.217 117.432L298.845 117.34L300.563 110.42L300.935 110.512C301.107 110.555 301.318 110.602 301.557 110.655C303.307 111.041 306.236 111.688 307.346 113.488C307.697 114.056 307.841 114.73 307.751 115.393H307.78L307.684 115.869C307.599 116.256 307.435 116.622 307.203 116.943C306.97 117.264 306.674 117.534 306.333 117.736C305.595 118.126 304.768 118.314 303.934 118.28ZM299.773 116.784C299.822 116.797 299.874 116.811 299.927 116.825C301.478 117.238 304.365 118.006 305.944 117.075C306.35 116.84 306.662 116.472 306.829 116.034L306.918 115.682C307.008 115.384 307.035 115.071 306.996 114.762C306.957 114.453 306.854 114.156 306.693 113.89C305.754 112.366 302.916 111.74 301.392 111.403C301.298 111.383 301.208 111.363 301.123 111.344L299.773 116.784Z" fill="#3F3D56"/>
<path opacity="0.4" d="M164.371 338.989H153.687V346.199H164.371V338.989Z" fill="black"/>
<path opacity="0.4" d="M193.214 338.989H182.53V346.199H193.214V338.989Z" fill="black"/>
<path d="M174.398 327.835C174.398 327.835 161.581 330.936 156.508 336.737C154.808 338.676 152.286 340.073 149.683 341.07V332.318C152.615 327.394 155.57 321.918 155.57 321.918C155.705 321.649 156.773 317.872 156.773 317.872C159.179 315.982 156.638 309.377 156.638 309.377C156.638 309.377 158.11 305.197 157.307 304.387C156.504 303.576 157.173 301.42 157.841 300.475C158.51 299.53 158.376 298.316 158.376 297.509C158.376 296.702 157.307 295.485 155.57 294.812C153.833 294.14 155.705 293.06 156.773 292.787C157.841 292.515 158.11 289.956 156.907 288.607C155.705 287.259 157.042 286.452 157.707 284.969C158.372 283.486 155.559 283.755 155.559 283.755V270.12C155.559 270.12 154.756 265.671 153.956 257.848C153.157 250.026 150.082 249.219 150.082 249.219C148.436 248.708 146.829 248.076 145.275 247.329C143.638 246.562 141.942 245.931 140.202 245.442C140.202 245.442 136.597 245.442 133.657 244.538C130.717 243.634 129.193 243.571 129.193 243.571L128.711 243.332C125.096 241.494 122.232 238.456 120.609 234.74C120.526 234.553 120.452 234.366 120.377 234.187C121.175 233.312 121.889 232.364 122.51 231.355V231.333C122.51 231.471 122.51 231.609 122.51 231.748C122.51 231.804 122.51 231.863 122.51 231.919C122.51 232.252 122.51 232.584 122.51 232.917V232.951C124.639 229.189 130.818 228.33 131.404 224.034C131.431 223.838 131.445 223.641 131.446 223.443V223.417C131.446 223.275 131.446 223.13 131.446 222.984C131.367 221.785 130.956 220.589 130.878 219.379C130.852 219.032 130.852 218.684 130.878 218.337V218.359C131.154 215.023 133.668 212.121 134.819 208.882C135.128 208.011 135.33 207.105 135.42 206.185V206.159C135.45 205.882 135.469 205.602 135.476 205.322C135.476 205.255 135.476 205.184 135.476 205.116C135.476 204.922 135.476 204.743 135.476 204.534C135.441 202.811 135.054 201.113 134.337 199.545C133.621 197.977 132.591 196.573 131.311 195.419C129.182 193.57 126.369 192.408 124.893 189.991C124.206 188.87 123.87 187.54 123.119 186.457C121.707 184.41 119.114 183.577 116.66 183.282C114.206 182.987 111.684 183.084 109.338 182.314C107.672 181.769 106.163 180.801 104.482 180.316C102.65 179.826 100.713 179.908 98.9292 180.551C97.1456 181.194 95.6015 182.367 94.5041 183.913C93.6188 185.206 93.0398 186.752 91.8444 187.761C89.3975 189.83 85.2473 188.934 83.103 191.317C81.9263 192.628 81.7918 194.414 81.9338 196.237C81.9338 196.259 81.9338 196.282 81.9338 196.304C81.9338 196.442 81.9599 196.584 81.9749 196.726C81.9749 196.794 81.9749 196.861 81.9749 196.924C81.9749 196.988 81.9749 197.066 82.001 197.137C82.0758 197.791 82.1691 198.441 82.2513 199.069C82.2513 199.166 82.2737 199.259 82.2849 199.356L82.3522 199.943C82.3522 200.085 82.3746 200.227 82.3895 200.369C82.4045 200.51 82.4157 200.742 82.4269 200.899C82.4381 201.056 82.4269 201.175 82.453 201.317C82.6926 206.296 81.6372 211.251 79.3898 215.699C77.3689 219.663 74.3655 223.316 73.8425 227.743C73.7611 228.469 73.7411 229.2 73.7827 229.928C73.7827 230.014 73.7827 230.1 73.7827 230.186C73.7827 230.272 73.8051 230.448 73.8163 230.578C73.8275 230.709 73.8462 230.881 73.8649 231.03C73.8649 231.116 73.8873 231.202 73.8985 231.288C73.9246 231.486 73.9545 231.684 73.9882 231.886L74.0106 232.013C74.541 235.031 75.7439 237.99 76.3827 241.038C76.6222 242.162 76.782 243.302 76.8608 244.449C76.8591 244.456 76.8591 244.464 76.8608 244.471C76.8832 244.845 76.9019 245.2 76.9131 245.566C76.9131 246.059 76.9131 246.556 76.9131 247.06C75.899 247.45 74.8593 247.769 73.8014 248.016C71.9336 248.285 66.4534 253.141 66.8531 254.367C67.2529 255.592 64.4026 264.079 64.3241 264.337L59.8414 295.343C59.8414 295.343 57.4618 297.636 58.2052 299.119C58.9486 300.602 58.0595 303.165 58.0595 303.165C58.0595 303.165 54.04 304.917 54.9328 305.997C55.8256 307.076 55.4185 309.097 54.8058 310.446C54.1932 311.794 53.1883 314.222 54.8058 314.626C56.4233 315.029 55.0822 320.293 55.0822 320.293C55.0822 320.293 60.7193 319.643 60.3121 322.99C60.1776 324.055 64.2532 326.983 65.9529 328.156V344.272C63.6704 343.633 60.9882 342.804 59.2773 342.004C55.807 340.387 36.3108 337.286 32.0373 346.591C27.7637 355.897 37.9134 368.303 40.4499 369.651C40.4499 369.651 42.8556 371.538 43.3898 372.483C43.924 373.428 46.9947 373.697 46.9947 373.697C46.9947 373.697 50.1998 375.191 50.9992 375.987C51.5895 376.585 56.4719 378.135 62.2583 379.349C62.2583 379.349 57.5851 390.108 65.2095 389.222C72.8339 388.337 76.547 384.583 81.9226 384.583C84.0706 384.583 88.0602 384.28 92.076 383.921C93.0847 384.1 94.0825 384.336 95.0645 384.627C97.3269 385.339 99.6505 385.839 102.005 386.122C102.005 386.122 108.016 389.357 111.221 388.546C111.485 388.472 111.732 388.345 111.946 388.172H112.02C112.603 388.027 113.264 387.425 113.952 386.518C117.96 386.929 122.544 387.511 124.247 388.176C127.568 389.458 151.323 387.683 151.323 387.683C151.323 387.683 166.669 387.986 171.065 389.316C175.462 390.645 173.901 375.737 165.787 374.059C163.621 373.625 161.418 373.407 159.209 373.409C159.771 372.83 160.284 372.205 160.744 371.542C163.665 371.276 165.6 371.112 165.6 371.112C165.6 371.112 173.344 367.335 177.752 365.042C180.567 363.511 183.094 361.504 185.223 359.109C185.223 359.109 189.093 356.681 190.696 355.747C192.299 354.813 193.098 351.702 193.098 351.702C205.242 324.189 174.398 327.835 174.398 327.835ZM139.627 293.325C139.627 292.873 139.627 292.418 139.627 291.966C140.06 292.272 139.996 292.754 139.627 293.322V293.325ZM139.754 302.862C140.079 303.288 140.392 303.677 140.616 303.983C141.479 305.104 139.918 305.627 140.03 307.483C140.056 307.898 140.093 308.477 140.131 309.12C139.966 306.441 139.832 304.237 139.754 302.859V302.862Z" fill="url(#paint0_linear)"/>
<path d="M70.2484 345.418C70.2484 345.418 62.7772 343.681 59.2993 342.078C55.8215 340.476 36.3328 337.405 32.0593 346.621C27.7857 355.837 37.9354 368.116 40.4718 369.453C43.0083 370.79 67.7119 352.49 67.7119 352.49L87.1968 360.708L90.9324 347.955L70.2484 345.418Z" fill="#2F2E41"/>
<path d="M149.56 347.955H92.2517C84.6532 347.955 78.4934 354.115 78.4934 361.713V363.704C78.4934 371.303 84.6532 377.463 92.2517 377.463H149.56C157.158 377.463 163.318 371.303 163.318 363.704V361.713C163.318 354.115 157.158 347.955 149.56 347.955Z" fill="#2F2E41"/>
<path opacity="0.1" d="M163.318 362.707C163.321 365.609 162.465 368.448 160.86 370.866C160.314 371.685 159.688 372.448 158.992 373.144C157.623 374.517 155.997 375.605 154.207 376.347C152.416 377.088 150.497 377.469 148.558 377.466H93.2491C89.3356 377.466 85.5825 375.912 82.8152 373.145C80.048 370.377 78.4934 366.624 78.4934 362.711C78.4934 358.797 80.048 355.044 82.8152 352.277C85.5825 349.51 89.3356 347.955 93.2491 347.955H148.562C152.475 347.955 156.228 349.509 158.995 352.276C161.762 355.042 163.317 358.794 163.318 362.707Z" fill="black"/>
<path d="M117.134 363.57C117.134 363.57 108.628 365.755 101.687 365.658C94.7466 365.561 62.2805 379.05 62.2805 379.05C62.2805 379.05 57.6072 389.704 65.2316 388.823C72.856 387.941 76.5692 384.243 81.9447 384.243C87.3203 384.243 104.231 382.375 104.231 382.375L120.504 370.354L117.134 363.57Z" fill="#FBBEBE"/>
<path d="M122.458 263.033L107.202 266.041L106.212 266.239C106.212 266.239 94.1496 263.033 93.7499 262.764C93.3502 262.495 82.4011 247.744 82.4011 247.744C82.4011 247.744 87.9373 247.803 92.2856 245.297C92.4424 245.207 92.5956 245.11 92.7488 245.017C94.6609 243.864 96.1133 242.082 96.8579 239.977C96.9364 239.757 97.0036 239.529 97.0671 239.29C97.5303 237.504 97.5602 235.341 96.9401 232.723C95.4459 226.495 98.8826 224.781 103.436 224.93C110.015 225.147 118.969 229.252 118.969 229.252C119.085 231.348 119.561 233.408 120.377 235.341C120.448 235.521 120.527 235.715 120.609 235.887C122.242 239.574 125.107 242.578 128.711 244.385L129.193 244.624C129.679 244.856 130.191 245.076 130.721 245.274C142.354 249.682 122.458 263.033 122.458 263.033Z" fill="#FBBEBE"/>
<path opacity="0.1" d="M120.624 235.887C117.723 239.171 113.787 241.367 109.469 242.111C105.15 242.855 100.706 242.102 96.8733 239.977C97.5308 238.065 97.654 235.685 96.9555 232.723C93.3506 217.5 118.996 229.252 118.996 229.252C119.122 231.546 119.674 233.796 120.624 235.887Z" fill="black"/>
<path d="M125.438 222.364C125.445 225.961 124.435 229.487 122.525 232.536C121.903 233.536 121.189 234.475 120.392 235.341C117.027 239.029 112.353 241.255 107.369 241.542C106.996 241.569 106.596 241.58 106.207 241.58C102.405 241.58 98.6873 240.452 95.5254 238.339C92.3635 236.227 89.8991 233.224 88.4438 229.711C86.9885 226.197 86.6078 222.331 87.3497 218.602C88.0916 214.872 89.9228 211.446 92.6118 208.757C95.3007 206.068 98.7267 204.237 102.456 203.495C106.186 202.753 110.052 203.134 113.565 204.589C117.079 206.044 120.082 208.509 122.194 211.671C124.307 214.833 125.435 218.55 125.435 222.353L125.438 222.364Z" fill="#FBBEBE"/>
<path opacity="0.1" d="M122.458 263.033L107.202 266.041L106.212 266.239C106.212 266.239 94.1496 263.033 93.7499 262.765C93.3502 262.496 82.4011 247.744 82.4011 247.744C82.4011 247.744 87.9373 247.803 92.2855 245.297C92.4424 245.207 92.5956 245.11 92.7488 245.017C94.1309 246.511 98.6548 250.736 105.764 250.706C106.676 250.706 107.588 250.64 108.491 250.508C110.635 250.179 112.798 249.966 114.957 249.761C119.092 249.328 125.417 248.072 128.738 244.419L129.219 244.658C129.705 244.89 130.217 245.11 130.747 245.308C142.354 249.682 122.458 263.033 122.458 263.033Z" fill="black"/>
<path d="M139.682 302.022C139.813 304.962 141.953 338.074 141.953 338.074H75.3214L75.7734 317.226L76.147 300.55L76.2665 295.077L76.8007 276.119L74.8694 274.416L64.3723 265.166C64.4508 264.92 67.2973 256.481 66.9013 255.293C66.5054 254.105 71.978 249.286 73.8496 249.017C74.9132 248.77 75.9591 248.452 76.98 248.065C80.1291 246.944 84.3317 245.33 84.7949 245.584C85.4486 245.935 92.0009 245.326 92.2661 245.3C92.2661 245.3 97.1 251.55 105.737 251.513C106.646 251.508 107.554 251.436 108.452 251.296C110.597 250.967 112.76 250.754 114.919 250.53C119.263 250.078 126.017 248.715 129.181 244.628C129.181 244.628 130.709 244.691 133.645 245.584C136.582 246.477 140.19 246.481 140.19 246.481C141.929 246.965 143.626 247.589 145.263 248.349C146.818 249.087 148.425 249.711 150.071 250.216C150.071 250.216 153.142 251.016 153.945 258.76C154.748 266.504 155.559 270.912 155.559 270.912L139.682 284.662C139.682 284.662 139.551 299.071 139.682 302.022Z" fill="#51CA89"/>
<path d="M64.3768 325.123L66.7116 328.862L75.4567 331.944L81.4673 320.984L75.9274 317.244L67.0478 313.774L61.9749 316.71L64.3768 325.123Z" fill="#FBBEBE"/>
<path d="M139.014 343.547C139.014 343.547 151.431 342.613 156.508 336.872C161.584 331.13 174.398 328.059 174.398 328.059C174.398 328.059 205.243 324.454 193.076 351.694C193.076 351.694 192.276 354.765 190.674 355.699C189.071 356.633 185.201 359.039 185.201 359.039L137.822 354.9L139.014 343.547Z" fill="#2F2E41"/>
<path opacity="0.1" d="M163.317 362.707C163.32 365.609 162.465 368.448 160.859 370.865C152.887 371.572 135.233 373.23 131.538 374.261C126.999 375.52 117.814 373.327 116.809 373.081L116.715 373.058C116.715 373.058 114.945 367.686 114.1 364.25C113.727 362.688 113.529 361.526 113.775 361.441C114.579 361.175 121.923 359.169 121.788 360.32C121.654 361.47 143.828 351.706 143.828 351.706L144.508 360.253C146.761 362.83 163.317 358.997 163.317 362.707Z" fill="black"/>
<path d="M186.15 355.564L185.216 359.039C183.083 361.412 180.555 363.399 177.745 364.911C173.337 367.182 165.593 370.922 165.593 370.922C165.593 370.922 137.154 373.324 132.346 374.657C127.538 375.991 117.523 373.454 117.523 373.454C117.523 373.454 113.788 362.106 114.587 361.837C115.386 361.568 122.731 359.569 122.6 360.716C122.469 361.863 144.64 352.102 144.64 352.102L186.15 355.564Z" fill="#2F2E41"/>
<path d="M106.966 385.502C106.966 385.502 120.944 386.477 124.269 387.743C127.594 389.009 151.345 387.257 151.345 387.257C151.345 387.257 166.69 387.556 171.087 388.871C175.484 390.186 173.923 375.423 165.809 373.768C157.695 372.113 146.26 374.549 146.26 374.549C146.26 374.549 133.358 372.886 131.792 372.681C130.227 372.476 119.921 372.774 119.921 372.774L106.966 385.502Z" fill="#FBBEBE"/>
<path opacity="0.1" d="M52.0347 348.649C52.0347 348.649 70.511 350.312 75.5914 353.341L52.0347 348.649Z" fill="black"/>
<path opacity="0.1" d="M167.278 336.531C167.278 336.531 152.81 340.05 147.139 345.228L167.278 336.531Z" fill="black"/>
<path opacity="0.1" d="M53.1101 344.447C53.4052 344.544 61.6161 345.62 61.4181 346.401C61.2201 347.181 53.1101 344.447 53.1101 344.447Z" fill="black"/>
<path opacity="0.1" d="M40.2078 365.045L41.2762 369.054C41.2762 369.054 43.6781 370.921 44.2123 371.855C44.7465 372.789 47.8172 373.058 47.8172 373.058C47.8172 373.058 51.0223 374.526 51.8255 375.326C52.6287 376.125 61.3027 378.665 69.4501 379.734C77.5975 380.802 92.6819 382.804 95.887 383.873C98.1517 384.575 100.476 385.067 102.831 385.341C102.831 385.341 108.838 388.546 112.044 387.747C115.249 386.947 120.721 372.39 120.721 372.39C120.721 372.39 99.6263 367.451 98.9577 365.849C98.289 364.246 77.9934 356.771 77.9934 356.771L65.976 357.055L40.2078 365.045Z" fill="black"/>
<path d="M39.4036 365.445L40.472 369.453C40.472 369.453 42.8777 371.321 43.4119 372.255C43.9461 373.189 47.0167 373.458 47.0167 373.458C47.0167 373.458 50.2219 374.926 51.0213 375.729C51.8207 376.532 60.5023 379.065 68.6459 380.133C76.7895 381.202 91.8814 383.204 95.0865 384.272C97.3503 384.972 99.6737 385.463 102.027 385.737C102.027 385.737 108.038 388.938 111.243 388.139C114.448 387.339 119.921 372.782 119.921 372.782C119.921 372.782 98.8222 367.843 98.1572 366.241C97.4923 364.638 67.712 352.49 67.712 352.49L58.373 350.353L39.4036 365.445Z" fill="#2F2E41"/>
<path d="M66.708 263.833L64.3733 265.17L59.8905 295.88C59.8905 295.88 57.511 298.152 58.2543 299.616C58.9977 301.08 58.1087 303.62 58.1087 303.62C58.1087 303.62 54.0891 305.358 54.982 306.426C55.8748 307.494 55.4676 309.497 54.8549 310.83C54.2423 312.164 53.2374 314.566 54.8549 314.969C56.4725 315.373 55.1314 320.573 55.1314 320.573C55.1314 320.573 60.7684 319.93 60.3612 323.24C60.1931 324.577 66.7342 328.843 66.7342 328.843C66.7342 328.843 59.3003 315.358 75.9536 317.226L77.3844 309.624C77.3844 309.624 78.8151 305.343 77.3844 304.02C75.9537 302.698 77.7057 296.344 77.7057 296.344L78.0194 268.771L66.708 263.833Z" fill="#51CA89"/>
<path opacity="0.1" d="M63.0796 303.494C63.3747 303.983 72.3663 304.988 72.9528 306.583C73.5393 308.178 63.0796 303.494 63.0796 303.494Z" fill="black"/>
<path opacity="0.1" d="M60.2441 311.118C60.2441 311.118 61.4657 307.304 64.3533 307.988C67.2409 308.671 60.2441 311.118 60.2441 311.118Z" fill="black"/>
<path opacity="0.1" d="M58.6829 316.688C58.6829 316.688 60.8308 311.603 63.7633 311.996C66.6957 312.388 58.6829 316.688 58.6829 316.688Z" fill="black"/>
<path d="M156.508 316.575L155.57 322.179C155.57 322.179 145.958 339.807 144.221 340.072C142.484 340.338 133.015 328.324 133.015 328.324L130.478 316.572L140.463 314.678L144.897 310.296C144.897 310.296 156.104 311.368 156.508 316.575Z" fill="#FBBEBE"/>
<path d="M151.965 268.375L155.57 270.912V284.397C155.57 284.397 158.375 284.128 157.707 285.6C157.038 287.072 155.704 287.868 156.907 289.205C158.11 290.542 157.841 293.075 156.773 293.344C155.704 293.613 153.837 294.678 155.57 295.346C157.303 296.015 158.375 297.214 158.375 298.017C158.375 298.82 158.51 300.019 157.841 300.953C157.173 301.887 156.508 304.024 157.307 304.827C158.106 305.63 156.638 309.766 156.638 309.766C156.638 309.766 159.179 316.31 156.773 318.178C156.773 318.178 155.704 321.914 155.57 322.183C155.57 322.183 157.255 309.187 140.456 314.682C140.456 314.682 140.146 309.728 140.03 307.894C139.914 306.06 141.479 305.522 140.616 304.427C139.753 303.333 137.594 300.819 138.614 300.154C139.634 299.489 139.283 298.286 138.879 297.349C138.476 296.411 137.068 296.415 138.345 295.279C139.623 294.143 140.381 293.079 139.63 292.545C138.879 292.01 137.576 290.27 138.614 289.47C139.653 288.671 139.682 277.053 139.682 277.053C139.682 277.053 143.956 259.963 151.965 268.375Z" fill="#51CA89"/>
<path opacity="0.1" d="M150.27 291.349C150.27 291.349 155.402 289.956 155.57 291.349C155.738 292.743 150.27 291.349 150.27 291.349Z" fill="black"/>
<path opacity="0.1" d="M144.501 295.186C144.501 295.186 151.539 293.426 152.417 294.793C153.295 296.161 144.501 295.186 144.501 295.186Z" fill="black"/>
<path opacity="0.1" d="M142.937 298.899C142.937 298.899 153.494 297.431 154.177 299.583C154.861 301.734 142.937 298.899 142.937 298.899Z" fill="black"/>
<path opacity="0.1" d="M144.501 303.494C144.893 303.591 154.666 304.274 154.86 306.131C155.054 307.988 144.501 303.494 144.501 303.494Z" fill="black"/>
<path d="M145.775 309.512H69.8902C67.7301 309.512 65.979 311.263 65.979 313.423V353.144C65.979 355.304 67.7301 357.055 69.8902 357.055H145.775C147.935 357.055 149.686 355.304 149.686 353.144V313.423C149.686 311.263 147.935 309.512 145.775 309.512Z" fill="#3F3D56"/>
<path d="M107.833 336.371C109.537 336.371 110.919 334.989 110.919 333.285C110.919 331.581 109.537 330.2 107.833 330.2C106.129 330.2 104.748 331.581 104.748 333.285C104.748 334.989 106.129 336.371 107.833 336.371Z" fill="#E7EFFD"/>
<path opacity="0.1" d="M79.9949 280.371C79.9949 280.371 88.019 286.504 94.2238 281.831C94.2238 281.831 83.7342 282.784 79.9949 280.371Z" fill="black"/>
<path opacity="0.1" d="M120.624 282.021C120.624 282.021 128.644 288.152 134.849 283.478C134.849 283.478 124.363 284.435 120.624 282.021Z" fill="black"/>
<path opacity="0.1" d="M125.439 222.364C125.445 225.961 124.435 229.487 122.525 232.536C122.365 227.183 121.106 221.826 118.192 217.354C115.525 213.245 107.415 206.077 101.841 208.075C101.258 208.289 100.734 208.637 100.311 209.091C99.8877 209.546 99.5776 210.093 99.4058 210.69C98.8529 212.79 100.47 213.679 101.509 215.334C103.27 218.201 103.958 221.6 103.451 224.927C103.381 225.374 103.287 225.818 103.171 226.256C102.293 229.551 100.284 233.32 102.357 236.021C103.803 237.889 106.911 238.554 107.333 240.878C107.371 241.097 107.384 241.32 107.37 241.543C107.273 243.115 105.932 244.501 105.345 246.044C104.658 247.863 105.047 249.671 105.76 251.498C106.686 253.881 108.166 256.291 108.524 258.809C108.883 261.326 108.11 263.665 107.198 266.029C106.335 268.271 105.33 270.493 104.994 272.828C104.348 277.266 105.977 282.399 103.182 285.903C102.898 286.327 102.46 286.623 101.961 286.728C100.172 286.915 100.467 283.699 99.036 282.619C99.1891 284.487 99.3348 286.437 98.6624 288.185C97.99 289.934 96.2193 291.42 94.3665 291.125L93.7277 286.93C92.4669 288.171 90.9495 289.121 89.2823 289.713C89.9387 285.252 91.5189 280.977 93.9219 277.162C89.2188 279.425 86.4769 284.326 84.03 288.936C82.5059 291.816 80.9257 294.962 81.4599 298.178C81.6766 299.489 82.2407 300.737 82.3639 302.056C82.4872 303.374 82.0091 304.917 80.7801 305.418C79.7079 305.855 78.4565 305.332 77.6832 304.458L77.5488 304.297C77.474 304.2 77.4031 304.099 77.3358 303.998C77.2023 303.795 77.0837 303.583 76.9809 303.363C76.6469 302.573 76.3965 301.751 76.2338 300.909L76.1516 300.535C74.9077 295.078 73.787 289.448 74.6985 283.927C75.0347 281.895 75.6473 279.877 75.5726 277.815C75.5165 276.653 75.2796 275.506 74.8703 274.416C73.7795 271.36 71.6801 268.555 70.4847 265.477C70.4717 265.456 70.4616 265.433 70.4548 265.409C69.8272 263.781 69.5172 261.745 70.679 260.437C71.2767 259.761 72.1732 259.421 72.9203 258.943C75.2439 257.43 76.2824 254.557 76.712 251.815C76.9054 250.58 77.0028 249.331 77.0034 248.08C80.1525 246.959 84.355 245.345 84.8182 245.599C85.472 245.951 92.0242 245.342 92.2895 245.315C94.2843 244.165 96.0251 242.473 96.8768 239.996C96.9552 239.776 97.0225 239.548 97.086 239.309C94.0952 237.695 91.5855 235.317 89.8126 232.418C88.0396 229.519 87.0668 226.202 86.9931 222.804C86.9195 219.406 87.7477 216.05 89.3933 213.077C91.0389 210.103 93.4432 207.619 96.3613 205.878C99.2794 204.136 102.607 203.199 106.005 203.161C109.403 203.124 112.751 203.988 115.706 205.666C118.662 207.343 121.12 209.774 122.83 212.71C124.541 215.647 125.442 218.984 125.443 222.383L125.439 222.364Z" fill="black"/>
<path d="M103.171 225.457C102.29 228.752 100.284 232.521 102.361 235.226C103.806 237.093 106.914 237.755 107.329 240.082C107.661 241.95 106.014 243.489 105.349 245.245C103.765 249.44 107.897 253.564 108.524 258.005C109.208 262.824 105.696 267.214 104.998 272.029C104.352 276.467 105.98 281.596 103.186 285.103C102.904 285.529 102.465 285.826 101.965 285.929C100.175 286.12 100.47 282.903 99.0396 281.82C99.1928 283.688 99.3385 285.638 98.6661 287.386C97.9936 289.134 96.223 290.617 94.3701 290.326L93.7313 286.127C92.4708 287.369 90.9534 288.319 89.2859 288.91C89.9423 284.451 91.5212 280.177 93.9218 276.362C89.2187 278.626 86.4805 283.527 84.0337 288.133C82.5058 291.013 80.9294 294.162 81.4598 297.379C81.6765 298.69 82.2406 299.934 82.3639 301.256C82.4871 302.579 82.009 304.114 80.78 304.618C79.6593 305.085 78.3033 304.465 77.5487 303.498C76.7941 302.53 76.5027 301.297 76.23 300.106C74.9524 294.532 73.7607 288.779 74.6909 283.139C75.0271 281.103 75.6398 279.085 75.565 277.027C75.4044 272.518 72.076 268.809 70.4547 264.614C69.8234 262.981 69.5171 260.949 70.6789 259.642C71.2766 258.965 72.1731 258.625 72.9202 258.147C75.2401 256.631 76.2823 253.762 76.7081 251.02C77.167 248.056 77.0822 245.033 76.4579 242.099C75.5202 237.71 73.3685 233.421 73.9027 228.965C74.4257 224.579 77.4291 220.963 79.4501 217.037C82.05 211.955 83.0478 206.205 82.3116 200.544C81.9641 197.911 81.3552 194.862 83.1409 192.894C85.2851 190.533 89.4354 191.422 91.8822 189.375C93.0776 188.377 93.6566 186.842 94.5419 185.564C95.6483 184.03 97.1948 182.867 98.9765 182.231C100.758 181.594 102.691 181.514 104.52 182.001C106.201 182.483 107.71 183.439 109.376 183.981C111.722 184.728 114.232 184.645 116.698 184.941C119.163 185.236 121.745 186.061 123.157 188.082C123.904 189.158 124.244 190.469 124.931 191.583C126.407 193.973 129.22 195.124 131.349 196.958C133.175 198.586 134.481 200.716 135.104 203.082C135.727 205.447 135.64 207.944 134.853 210.261C133.583 213.798 130.643 216.929 130.893 220.679C130.994 222.222 131.64 223.735 131.439 225.263C130.848 229.518 124.673 230.366 122.54 234.094C122.712 227.982 121.539 221.688 118.203 216.566C115.536 212.457 107.426 205.285 101.853 207.283C101.27 207.498 100.746 207.846 100.323 208.301C99.9002 208.755 99.5898 209.302 99.4169 209.898C98.864 211.994 100.482 212.887 101.52 214.542C102.514 216.157 103.173 217.956 103.457 219.831C103.74 221.707 103.643 223.62 103.171 225.457Z" fill="#3F3D56"/>
<g opacity="0.2">
<path opacity="0.2" d="M76.9812 246.63C77.0278 244.71 76.8485 242.792 76.447 240.914C75.6513 237.179 73.9852 233.522 73.8321 229.771C73.6154 233.947 75.5691 237.989 76.447 242.099C76.7655 243.589 76.9443 245.106 76.9812 246.63Z" fill="black"/>
<path opacity="0.2" d="M92.8951 276.944C93.2201 276.35 93.5563 275.76 93.9187 275.185C89.2193 277.448 86.4774 282.349 84.0305 286.959C82.6148 289.623 81.1616 292.522 81.3783 295.488C81.5576 292.944 82.809 290.463 84.0305 288.158C86.2943 283.896 88.8121 279.391 92.8951 276.944Z" fill="black"/>
<path opacity="0.2" d="M82.3421 301.102C82.2001 302.111 81.6996 303.067 80.7806 303.445C79.6599 303.908 78.3039 303.292 77.553 302.324C76.8022 301.357 76.5033 300.128 76.2306 298.932C75.3191 294.95 74.4525 290.871 74.3628 286.81C74.2732 291.267 75.222 295.757 76.2306 300.135C76.5033 301.327 76.7984 302.563 77.553 303.527C78.3076 304.491 79.6487 305.111 80.7806 304.648C82.0096 304.143 82.4915 302.608 82.3682 301.286C82.3421 301.222 82.3421 301.162 82.3421 301.102Z" fill="black"/>
<path opacity="0.2" d="M103.606 221.444C103.562 222.403 103.417 223.355 103.172 224.283C102.522 226.723 101.252 229.427 101.48 231.755C101.659 229.722 102.631 227.511 103.172 225.475C103.519 224.161 103.665 222.802 103.606 221.444Z" fill="black"/>
<path opacity="0.2" d="M82.5334 203.618C82.5646 202.193 82.4872 200.768 82.3018 199.356C82.1635 198.317 81.988 197.211 81.9282 196.132C81.8423 197.57 82.1038 199.12 82.3018 200.559C82.4349 201.573 82.5122 202.595 82.5334 203.618Z" fill="black"/>
<path opacity="0.2" d="M107.334 240.119C107.334 240.085 107.334 240.059 107.308 240.025C107.024 241.415 105.881 242.685 105.354 244.082C105.041 244.916 104.929 245.812 105.025 246.697C105.071 246.214 105.181 245.739 105.354 245.285C106.015 243.526 107.663 241.972 107.334 240.119Z" fill="black"/>
<path opacity="0.2" d="M75.5659 275.853C75.4015 271.344 72.0769 267.635 70.4519 263.44C70.1926 262.779 70.0169 262.089 69.9289 261.385C69.8389 262.497 70.0183 263.615 70.4519 264.643C72.0507 268.782 75.2857 272.424 75.5472 276.832C75.5659 276.507 75.5771 276.178 75.5659 275.853Z" fill="black"/>
<path opacity="0.2" d="M118.204 215.393C115.533 211.283 107.427 204.111 101.853 206.11C101.271 206.324 100.746 206.672 100.322 207.127C99.8987 207.581 99.5876 208.128 99.4141 208.725C99.2824 209.182 99.2683 209.665 99.373 210.129C99.373 210.062 99.3954 209.995 99.4141 209.927C99.5871 209.331 99.898 208.783 100.322 208.329C100.746 207.875 101.27 207.526 101.853 207.313C107.427 205.314 115.533 212.498 118.204 216.595C121.223 221.235 122.467 226.835 122.549 232.39C122.627 226.431 121.436 220.354 118.204 215.393Z" fill="black"/>
<path opacity="0.2" d="M131.429 224.078C130.842 228.321 124.705 229.177 122.549 232.883C122.549 233.29 122.549 233.701 122.549 234.108C124.678 230.372 130.857 229.532 131.444 225.277C131.496 224.859 131.496 224.436 131.444 224.018C131.44 224.038 131.436 224.058 131.429 224.078Z" fill="black"/>
<path opacity="0.2" d="M134.843 209.072C133.573 212.614 130.633 215.74 130.883 219.495C130.883 219.547 130.883 219.603 130.883 219.659C131.16 216.353 133.674 213.484 134.824 210.275C135.342 208.809 135.564 207.255 135.478 205.703C135.437 206.851 135.223 207.987 134.843 209.072Z" fill="black"/>
<path opacity="0.2" d="M103.188 283.937C102.905 284.364 102.466 284.662 101.966 284.767C100.177 284.957 100.472 281.741 99.041 280.658C99.0784 281.083 99.112 281.513 99.1344 281.943C100.464 283.093 100.218 286.153 101.966 285.966C102.214 285.915 102.449 285.816 102.659 285.675C102.869 285.533 103.048 285.352 103.188 285.14C104.783 283.138 104.936 280.609 104.895 277.983C104.854 280.172 104.536 282.26 103.188 283.937Z" fill="black"/>
<path opacity="0.2" d="M98.6627 286.223C97.9828 287.975 96.2196 289.458 94.363 289.163C94.1513 287.766 93.9396 286.366 93.7279 284.964C92.5221 286.148 91.0833 287.068 89.5029 287.665C89.4208 288.091 89.3423 288.521 89.2788 288.95C90.9474 288.359 92.4661 287.409 93.7279 286.167C93.9396 287.569 94.1513 288.969 94.363 290.366C96.2308 290.657 97.9828 289.178 98.6627 287.426C99.0801 286.206 99.2466 284.913 99.152 283.627C99.1324 284.513 98.9671 285.39 98.6627 286.223Z" fill="black"/>
<path opacity="0.2" d="M104.999 270.863C104.855 271.991 104.801 273.129 104.838 274.266C104.844 273.53 104.898 272.795 104.999 272.066C105.668 267.475 108.884 263.272 108.593 258.718C108.335 262.835 105.608 266.679 104.999 270.863Z" fill="black"/>
</g>
<path d="M125.621 295.429C125.621 295.429 144.599 206.471 263.383 141.939" stroke="#3F3D56" stroke-width="2" stroke-miterlimit="10"/>
<defs>
<linearGradient id="paint0_linear" x1="113.477" y1="389.334" x2="113.477" y2="179.98" gradientUnits="userSpaceOnUse">
<stop stop-color="#808080" stop-opacity="0.25"/>
<stop offset="0.54" stop-color="#808080" stop-opacity="0.12"/>
<stop offset="1" stop-color="#808080" stop-opacity="0.1"/>
</linearGradient>
</defs>
</svg>
